<?xml version="1.0" encoding="UTF-8"?>
<!DOCTYPE svg PUBLIC "-//W3C//DTD SVG 1.1//EN" "http://www.w3.org/Graphics/SVG/1.1/DTD/svg11.dtd">
<svg xmlns="http://www.w3.org/2000/svg" version="1.1" width="1200px" height="1023px" style="shape-rendering:geometricPrecision; text-rendering:geometricPrecision; image-rendering:optimizeQuality; fill-rule:evenodd; clip-rule:evenodd" xmlns:xlink="http://www.w3.org/1999/xlink">
<g><path style="opacity:0.995" fill="#24262e" d="M 341.5,1.5 C 356.324,0.800563 370.991,1.96723 385.5,5C 617.957,48.4646 850.29,92.4646 1082.5,137C 1139.86,154.898 1176.69,192.732 1193,250.5C 1202.69,295.387 1196.02,337.721 1173,377.5C 1043.08,578.33 913.417,779.33 784,980.5C 761.069,1008.05 731.569,1021.71 695.5,1021.5C 681.753,1021.78 668.42,1019.62 655.5,1015C 461.661,935.276 267.661,855.942 73.5,777C 27.4182,756.879 3.41823,721.546 1.5,671C 1.71474,654.26 4.8814,638.093 11,622.5C 91.1947,436.916 171.195,251.249 251,65.5C 270.009,28.3159 300.175,6.98256 341.5,1.5 Z"/></g>
<g><path style="opacity:1" fill="#fafafa" d="M 307.5,262.5 C 326.167,262.5 344.833,262.5 363.5,262.5C 363.333,308.835 363.5,355.168 364,401.5C 396.343,381.844 430.843,377.011 467.5,387C 499.68,398.474 519.514,420.974 527,454.5C 531.472,473.226 533.306,492.226 532.5,511.5C 533.432,534.893 530.932,557.893 525,580.5C 515.883,613.784 494.716,634.784 461.5,643.5C 457.96,643.753 454.627,644.419 451.5,645.5C 438.773,646.677 426.107,646.677 413.5,645.5C 409.433,643.946 405.1,643.28 400.5,643.5C 382.034,639.849 365.201,632.515 350,621.5C 349.228,621.645 348.561,621.978 348,622.5C 345.485,628.193 342.985,633.859 340.5,639.5C 329.5,639.5 318.5,639.5 307.5,639.5C 307.5,513.833 307.5,388.167 307.5,262.5 Z"/></g>
<g><path style="opacity:1" fill="#d5d6d7" d="M 307.5,262.5 C 307.5,388.167 307.5,513.833 307.5,639.5C 318.5,639.5 329.5,639.5 340.5,639.5C 329.346,640.495 318.012,640.828 306.5,640.5C 306.167,514.332 306.5,388.332 307.5,262.5 Z"/></g>
<g><path style="opacity:1" fill="#f8f8f9" d="M 829.5,301.5 C 829.41,304.152 830.076,306.485 831.5,308.5C 830.58,338.251 815.247,352.085 785.5,350C 764.526,342.565 755.359,327.732 758,305.5C 764.475,285.367 778.309,275.867 799.5,277C 813.917,279.931 823.917,288.097 829.5,301.5 Z"/></g>
<g><path style="opacity:1" fill="#a0a1a5" d="M 829.5,301.5 C 830.924,303.515 831.59,305.848 831.5,308.5C 830.076,306.485 829.41,304.152 829.5,301.5 Z"/></g>
<g><path style="opacity:1" fill="#f9f9f9" d="M 730.5,394.5 C 730.5,410.5 730.5,426.5 730.5,442.5C 729.5,442.5 728.5,442.5 727.5,442.5C 699.94,433.18 671.606,429.013 642.5,430C 628.782,430.001 617.615,435.168 609,445.5C 605.586,452.775 604.586,460.441 606,468.5C 607.324,474.322 610.491,478.822 615.5,482C 620.232,484.466 625.232,486.133 630.5,487C 651.734,488.824 672.734,492.157 693.5,497C 727.438,505.724 743.771,527.557 742.5,562.5C 743.977,598.735 727.977,623.568 694.5,637C 674.047,644.612 652.88,647.779 631,646.5C 623.474,646.427 615.974,646.094 608.5,645.5C 603.731,644.111 598.731,643.444 593.5,643.5C 579.084,641.818 565.084,638.484 551.5,633.5C 550.849,617.132 551.515,601.132 553.5,585.5C 585.17,597.275 617.836,601.108 651.5,597C 660.821,595.782 669.488,592.782 677.5,588C 681.734,584.361 684.568,579.861 686,574.5C 689.002,562.82 686.169,552.987 677.5,545C 670.786,541.596 663.786,539.096 656.5,537.5C 651.402,536.043 646.069,535.376 640.5,535.5C 618.384,534.815 597.384,529.648 577.5,520C 560.996,509.841 551.996,495.008 550.5,475.5C 550.39,464.815 550.723,454.148 551.5,443.5C 554.502,429.33 561.169,417.163 571.5,407C 588.688,393.109 608.355,385.109 630.5,383C 654.603,381.712 678.603,382.712 702.5,386C 712.068,388.134 721.401,390.968 730.5,394.5 Z"/></g>
<g><path style="opacity:1" fill="#f7f7f7" d="M 836.5,596.5 C 838.607,597.468 840.941,597.802 843.5,597.5C 843.5,612.5 843.5,627.5 843.5,642.5C 835.542,643.403 827.542,643.736 819.5,643.5C 783.885,639.038 766.051,618.704 766,582.5C 765.5,517.834 765.333,453.168 765.5,388.5C 784.833,388.5 804.167,388.5 823.5,388.5C 823.333,454.501 823.5,520.501 824,586.5C 826.039,592.591 830.206,595.924 836.5,596.5 Z"/></g>
<g><path style="opacity:1" fill="#c7c8ca" d="M 730.5,394.5 C 731.496,410.658 731.83,426.991 731.5,443.5C 729.901,443.768 728.568,443.434 727.5,442.5C 728.5,442.5 729.5,442.5 730.5,442.5C 730.5,426.5 730.5,410.5 730.5,394.5 Z"/></g>
<g><path style="opacity:1" fill="#505158" d="M 411.5,430.5 C 407.081,431.972 402.414,432.638 397.5,432.5C 401.9,430.896 406.566,430.229 411.5,430.5 Z"/></g>
<g><path style="opacity:1" fill="#24262e" d="M 411.5,430.5 C 448.735,428.192 469.568,445.526 474,482.5C 476.448,506.926 475.781,531.259 472,555.5C 468.544,577.618 456.044,591.451 434.5,597C 409.649,601.136 386.315,596.97 364.5,584.5C 363.167,537.833 363.167,491.167 364.5,444.5C 374.628,438.124 385.628,434.124 397.5,432.5C 402.414,432.638 407.081,431.972 411.5,430.5 Z"/></g>
<g><path style="opacity:1" fill="#c4c4c6" d="M 551.5,443.5 C 550.723,454.148 550.39,464.815 550.5,475.5C 549.834,471.514 549.501,467.347 549.5,463C 549.353,456.269 550.02,449.769 551.5,443.5 Z"/></g>
<g><path style="opacity:1" fill="#b9babd" d="M 640.5,535.5 C 646.069,535.376 651.402,536.043 656.5,537.5C 650.949,537.473 645.616,536.806 640.5,535.5 Z"/></g>
<g><path style="opacity:1" fill="#88898d" d="M 553.5,585.5 C 551.515,601.132 550.849,617.132 551.5,633.5C 550.504,617.342 550.17,601.009 550.5,584.5C 551.791,584.263 552.791,584.596 553.5,585.5 Z"/></g>
<g><path style="opacity:1" fill="#b5b5b8" d="M 836.5,596.5 C 839.167,596.5 841.833,596.5 844.5,596.5C 844.5,612.167 844.5,627.833 844.5,643.5C 836.025,644.755 827.692,644.755 819.5,643.5C 827.542,643.736 835.542,643.403 843.5,642.5C 843.5,627.5 843.5,612.5 843.5,597.5C 840.941,597.802 838.607,597.468 836.5,596.5 Z"/></g>
<g><path style="opacity:1" fill="#c5c5c7" d="M 400.5,643.5 C 405.1,643.28 409.433,643.946 413.5,645.5C 408.9,645.72 404.567,645.054 400.5,643.5 Z"/></g>
<g><path style="opacity:1" fill="#474950" d="M 461.5,643.5 C 460.493,644.828 459.16,645.828 457.5,646.5C 455.547,645.844 453.547,645.511 451.5,645.5C 454.627,644.419 457.96,643.753 461.5,643.5 Z"/></g>
<g><path style="opacity:1" fill="#b5b5b8" d="M 593.5,643.5 C 598.731,643.444 603.731,644.111 608.5,645.5C 603.269,645.556 598.269,644.889 593.5,643.5 Z"/></g>
</svg>
