<?xml version="1.0" encoding="UTF-8"?>
<svg xmlns="http://www.w3.org/2000/svg" xmlns:xlink="http://www.w3.org/1999/xlink" width="206.54pt" height="203.01pt" viewBox="0 0 206.54 203.01" version="1.1">
<defs>
<clipPath id="clip1">
  <path d="M 194 91 L 206.539063 91 L 206.539063 103 L 194 103 Z M 194 91 "/>
</clipPath>
<clipPath id="clip2">
  <path d="M 194 105 L 206.539063 105 L 206.539063 113 L 194 113 Z M 194 105 "/>
</clipPath>
<clipPath id="clip3">
  <path d="M 97 191 L 107 191 L 107 203.011719 L 97 203.011719 Z M 97 191 "/>
</clipPath>
</defs>
<g id="surface1">
<path style=" stroke:none;fill-rule:nonzero;fill:rgb(25.881958%,50.979614%,25.097656%);fill-opacity:1;" d="M 51.421875 149.476563 L 151.984375 149.476563 L 151.984375 48.910156 L 51.421875 48.910156 Z M 51.421875 149.476563 "/>
<path style=" stroke:none;fill-rule:nonzero;fill:rgb(95.298767%,77.2995%,32.899475%);fill-opacity:1;" d="M 0.601563 106.0625 L 2.335938 106.78125 C 1.917969 107.265625 1.746094 108.007813 1.816406 109.011719 C 1.882813 109.964844 2.335938 110.71875 3.175781 111.269531 C 4.011719 111.824219 5.042969 112.058594 6.257813 111.972656 C 7.476563 111.886719 8.425781 111.535156 9.101563 110.921875 C 9.777344 110.308594 10.082031 109.53125 10.015625 108.589844 C 9.941406 107.511719 9.496094 106.695313 8.679688 106.144531 L 10.25 105.082031 C 11.191406 105.847656 11.71875 107.03125 11.832031 108.625 C 11.941406 110.222656 11.503906 111.5 10.519531 112.457031 C 9.53125 113.414063 8.132813 113.957031 6.320313 114.082031 C 4.632813 114.203125 3.1875 113.8125 1.988281 112.910156 C 0.785156 112.007813 0.128906 110.792969 0.0234375 109.265625 C -0.0703125 107.953125 0.125 106.886719 0.601563 106.0625 "/>
<path style=" stroke:none;fill-rule:nonzero;fill:rgb(95.298767%,77.2995%,32.899475%);fill-opacity:1;" d="M 1.988281 98.613281 L 4.65625 98.796875 L 4.914063 95.09375 L 6.636719 95.214844 L 6.378906 98.917969 L 9.796875 99.15625 L 10.15625 93.96875 L 11.960938 94.097656 L 11.457031 101.3125 L 0.046875 100.511719 L 0.550781 93.296875 L 2.351563 93.425781 L 1.988281 98.613281 "/>
<path style=" stroke:none;fill-rule:nonzero;fill:rgb(95.298767%,77.2995%,32.899475%);fill-opacity:1;" d="M 3.214844 86.320313 L 6.34375 86.929688 C 6.445313 86.566406 6.515625 86.289063 6.550781 86.09375 C 6.714844 85.261719 6.714844 84.628906 6.554688 84.195313 C 6.394531 83.765625 5.972656 83.480469 5.292969 83.351563 C 4.738281 83.242188 4.3125 83.375 4.011719 83.746094 C 3.710938 84.117188 3.472656 84.746094 3.300781 85.636719 C 3.257813 85.851563 3.230469 86.078125 3.214844 86.320313 Z M 13.546875 83.894531 L 8.332031 86 C 8.265625 86.300781 8.167969 86.71875 8.03125 87.257813 L 12.71875 88.167969 L 12.316406 90.242188 L 1.074219 88.054688 C 1.097656 87.941406 1.160156 87.507813 1.269531 86.746094 C 1.378906 85.988281 1.476563 85.378906 1.566406 84.917969 C 2.121094 82.0625 3.503906 80.851563 5.71875 81.28125 C 6.382813 81.410156 6.949219 81.726563 7.421875 82.226563 C 7.894531 82.726563 8.183594 83.296875 8.292969 83.9375 L 13.992188 81.601563 L 13.546875 83.894531 "/>
<path style=" stroke:none;fill-rule:nonzero;fill:rgb(95.298767%,77.2995%,32.899475%);fill-opacity:1;" d="M 6.820313 71.863281 L 15.980469 74.839844 L 15.355469 76.769531 L 6.195313 73.792969 L 5.066406 77.265625 L 3.347656 76.703125 L 6.277344 67.683594 L 8 68.238281 L 6.820313 71.863281 "/>
<path style=" stroke:none;fill-rule:nonzero;fill:rgb(95.298767%,77.2995%,32.899475%);fill-opacity:1;" d="M 18.429688 68.152344 L 7.980469 63.496094 L 8.808594 61.640625 L 19.257813 66.296875 L 18.429688 68.152344 "/>
<path style=" stroke:none;fill-rule:nonzero;fill:rgb(95.298767%,77.2995%,32.899475%);fill-opacity:1;" d="M 13.503906 55.925781 L 15.84375 57.222656 L 17.789063 53.710938 L 19.300781 54.546875 L 17.351563 58.058594 L 21.929688 60.597656 L 20.945313 62.371094 L 10.9375 56.828125 L 14.59375 50.234375 L 16.171875 51.113281 L 13.503906 55.925781 "/>
<path style=" stroke:none;fill-rule:nonzero;fill:rgb(95.298767%,77.2995%,32.899475%);fill-opacity:1;" d="M 26.671875 52.625 L 17.300781 46.0625 L 18.464844 44.398438 L 27.835938 50.960938 L 26.671875 52.625 "/>
<path style=" stroke:none;fill-rule:nonzero;fill:rgb(95.298767%,77.2995%,32.899475%);fill-opacity:1;" d="M 24.070313 39.894531 L 26.148438 41.574219 L 28.484375 38.691406 L 29.828125 39.777344 L 27.488281 42.664063 L 30.152344 44.816406 L 33.421875 40.777344 L 34.828125 41.914063 L 30.277344 47.535156 L 21.386719 40.335938 L 25.9375 34.714844 L 27.34375 35.851563 L 24.070313 39.894531 "/>
<path style=" stroke:none;fill-rule:nonzero;fill:rgb(95.298767%,77.2995%,32.899475%);fill-opacity:1;" d="M 32.410156 30.589844 L 37.730469 36.296875 C 37.992188 36.097656 38.261719 35.867188 38.539063 35.609375 C 39.289063 34.910156 39.621094 34.089844 39.539063 33.152344 C 39.457031 32.210938 38.957031 31.253906 38.046875 30.277344 C 36.378906 28.488281 34.714844 28.367188 33.050781 29.917969 C 32.894531 30.066406 32.679688 30.292969 32.410156 30.589844 Z M 39.367188 37.308594 L 37.511719 39.039063 L 29.714844 30.679688 C 30.859375 29.53125 31.582031 28.816406 31.886719 28.53125 C 33.105469 27.394531 34.40625 26.851563 35.785156 26.902344 C 37.164063 26.949219 38.40625 27.5625 39.503906 28.742188 C 42.308594 31.753906 42.265625 34.605469 39.367188 37.308594 "/>
<path style=" stroke:none;fill-rule:nonzero;fill:rgb(95.298767%,77.2995%,32.899475%);fill-opacity:1;" d="M 52.074219 27.03125 L 45.84375 17.4375 L 47.546875 16.332031 L 53.777344 25.925781 L 52.074219 27.03125 "/>
<path style=" stroke:none;fill-rule:nonzero;fill:rgb(95.298767%,77.2995%,32.899475%);fill-opacity:1;" d="M 64.074219 20.25 L 55.769531 16.457031 L 59.097656 22.714844 L 57.371094 23.632813 L 52.003906 13.53125 L 52.863281 13.074219 L 60.882813 16.636719 L 57.640625 10.535156 L 59.363281 9.617188 L 64.808594 19.859375 L 64.074219 20.25 "/>
<path style=" stroke:none;fill-rule:nonzero;fill:rgb(95.298767%,77.2995%,32.899475%);fill-opacity:1;" d="M 67.625 8.246094 L 68.496094 10.769531 L 72.292969 9.464844 L 72.855469 11.097656 L 69.058594 12.40625 L 70.761719 17.351563 L 68.839844 18.011719 L 65.117188 7.195313 L 72.242188 4.742188 L 72.832031 6.453125 L 67.625 8.246094 "/>
<path style=" stroke:none;fill-rule:nonzero;fill:rgb(95.298767%,77.2995%,32.899475%);fill-opacity:1;" d="M 79.898438 8.402344 C 80.175781 9.710938 80.613281 10.675781 81.210938 11.300781 C 81.804688 11.921875 82.523438 12.144531 83.367188 11.964844 C 84.363281 11.753906 85.042969 11.242188 85.417969 10.429688 C 85.789063 9.617188 85.832031 8.539063 85.546875 7.203125 C 84.992188 4.582031 83.746094 3.476563 81.8125 3.890625 C 80.925781 4.078125 80.324219 4.578125 80 5.386719 C 79.675781 6.195313 79.644531 7.203125 79.898438 8.402344 Z M 77.832031 8.84375 C 77.496094 7.25 77.644531 5.808594 78.285156 4.519531 C 78.921875 3.230469 79.972656 2.429688 81.4375 2.121094 C 83.046875 1.777344 84.382813 2.015625 85.445313 2.832031 C 86.507813 3.652344 87.230469 4.960938 87.613281 6.765625 C 87.996094 8.566406 87.859375 10.09375 87.195313 11.339844 C 86.53125 12.589844 85.378906 13.386719 83.746094 13.734375 C 82.242188 14.054688 80.976563 13.773438 79.953125 12.894531 C 78.925781 12.015625 78.21875 10.664063 77.832031 8.84375 "/>
<path style=" stroke:none;fill-rule:nonzero;fill:rgb(95.298767%,77.2995%,32.899475%);fill-opacity:1;" d="M 94.066406 2.101563 L 94.289063 5.28125 C 94.664063 5.285156 94.953125 5.28125 95.148438 5.265625 C 95.996094 5.207031 96.609375 5.046875 96.984375 4.777344 C 97.359375 4.511719 97.523438 4.03125 97.472656 3.339844 C 97.433594 2.777344 97.195313 2.398438 96.761719 2.203125 C 96.324219 2.011719 95.652344 1.945313 94.75 2.007813 C 94.53125 2.023438 94.304688 2.054688 94.066406 2.101563 Z M 99.085938 11.457031 L 95.699219 6.960938 C 95.394531 6.976563 94.964844 6.988281 94.410156 6.996094 L 94.742188 11.761719 L 92.636719 11.90625 L 91.835938 0.484375 C 91.953125 0.476563 92.390625 0.425781 93.152344 0.332031 C 93.910156 0.242188 94.527344 0.179688 94.996094 0.144531 C 97.894531 -0.0585938 99.425781 0.964844 99.582031 3.214844 C 99.628906 3.890625 99.472656 4.523438 99.109375 5.105469 C 98.75 5.691406 98.273438 6.121094 97.679688 6.390625 L 101.414063 11.292969 L 99.085938 11.457031 "/>
<path style=" stroke:none;fill-rule:nonzero;fill:rgb(95.298767%,77.2995%,32.899475%);fill-opacity:1;" d="M 115.078125 12.066406 L 113.117188 11.929688 L 112.355469 5.699219 L 109.625 11.84375 L 108.90625 11.792969 L 107.058594 5.328125 L 105.40625 11.390625 L 103.445313 11.253906 L 106.539063 0 L 107.609375 0.0742188 L 109.539063 7.941406 L 112.480469 0.414063 L 113.546875 0.492188 L 115.078125 12.066406 "/>
<path style=" stroke:none;fill-rule:nonzero;fill:rgb(95.298767%,77.2995%,32.899475%);fill-opacity:1;" d="M 123.855469 5.429688 L 121.621094 9.273438 L 124.324219 9.847656 Z M 124.925781 13.933594 L 124.589844 11.488281 L 120.730469 10.667969 L 119.464844 12.769531 L 117.257813 12.304688 L 124.144531 1.90625 L 125.019531 2.09375 L 127.117188 14.398438 L 124.925781 13.933594 "/>
<path style=" stroke:none;fill-rule:nonzero;fill:rgb(95.298767%,77.2995%,32.899475%);fill-opacity:1;" d="M 136.238281 7.261719 L 133.261719 16.421875 L 131.328125 15.796875 L 134.304688 6.636719 L 130.835938 5.507813 L 131.394531 3.789063 L 140.417969 6.71875 L 139.859375 8.441406 L 136.238281 7.261719 "/>
<path style=" stroke:none;fill-rule:nonzero;fill:rgb(95.298767%,77.2995%,32.899475%);fill-opacity:1;" d="M 139.890625 19.03125 L 144.539063 8.582031 L 146.398438 9.40625 L 141.742188 19.859375 L 139.890625 19.03125 "/>
<path style=" stroke:none;fill-rule:nonzero;fill:rgb(95.298767%,77.2995%,32.899475%);fill-opacity:1;" d="M 150.070313 17.5 C 149.382813 18.644531 149.042969 19.648438 149.054688 20.511719 C 149.0625 21.371094 149.4375 22.027344 150.179688 22.472656 C 151.050781 22.992188 151.898438 23.085938 152.726563 22.742188 C 153.550781 22.402344 154.316406 21.644531 155.019531 20.472656 C 156.402344 18.179688 156.242188 16.519531 154.550781 15.503906 C 153.773438 15.035156 152.988281 14.988281 152.199219 15.363281 C 151.414063 15.734375 150.703125 16.445313 150.070313 17.5 Z M 148.261719 16.410156 C 149.101563 15.015625 150.191406 14.0625 151.539063 13.558594 C 152.886719 13.050781 154.199219 13.183594 155.480469 13.953125 C 156.890625 14.800781 157.707031 15.886719 157.925781 17.207031 C 158.144531 18.53125 157.78125 19.980469 156.832031 21.5625 C 155.882813 23.140625 154.738281 24.160156 153.402344 24.621094 C 152.066406 25.082031 150.683594 24.882813 149.246094 24.019531 C 147.933594 23.230469 147.195313 22.164063 147.046875 20.820313 C 146.894531 19.480469 147.300781 18.007813 148.261719 16.410156 "/>
<path style=" stroke:none;fill-rule:nonzero;fill:rgb(95.298767%,77.2995%,32.899475%);fill-opacity:1;" d="M 162.773438 33.515625 L 163.019531 24.390625 L 158.5625 29.898438 L 157.042969 28.671875 L 164.242188 19.78125 L 165.003906 20.394531 L 164.855469 29.167969 L 169.203125 23.796875 L 170.722656 25.027344 L 163.421875 34.039063 L 162.773438 33.515625 "/>
<path style=" stroke:none;fill-rule:nonzero;fill:rgb(95.298767%,77.2995%,32.899475%);fill-opacity:1;" d="M 171.507813 40.777344 L 173.390625 40.179688 C 173.472656 41.160156 173.765625 41.945313 174.265625 42.542969 C 175.03125 43.457031 175.730469 43.644531 176.371094 43.113281 C 176.667969 42.863281 176.863281 42.515625 176.953125 42.070313 C 177.042969 41.628906 176.972656 40.929688 176.742188 39.972656 C 176.515625 39.015625 176.410156 38.328125 176.429688 37.914063 C 176.449219 37.496094 176.558594 37.097656 176.75 36.722656 C 176.945313 36.347656 177.222656 36.003906 177.585938 35.699219 C 178.261719 35.132813 179.03125 34.910156 179.894531 35.03125 C 180.761719 35.152344 181.519531 35.605469 182.171875 36.382813 C 183.019531 37.394531 183.453125 38.300781 183.476563 39.09375 L 181.734375 39.746094 C 181.667969 38.871094 181.382813 38.128906 180.871094 37.523438 C 180.570313 37.164063 180.242188 36.964844 179.886719 36.925781 C 179.53125 36.886719 179.203125 36.996094 178.902344 37.25 C 178.398438 37.671875 178.347656 38.664063 178.738281 40.234375 C 178.945313 41.0625 179.035156 41.707031 179.011719 42.167969 C 178.988281 42.628906 178.875 43.0625 178.667969 43.46875 C 178.460938 43.875 178.160156 44.242188 177.765625 44.574219 C 177.054688 45.167969 176.234375 45.378906 175.308594 45.203125 C 174.378906 45.027344 173.519531 44.46875 172.730469 43.527344 C 172.042969 42.710938 171.636719 41.792969 171.507813 40.777344 "/>
<path style=" stroke:none;fill-rule:nonzero;fill:rgb(95.298767%,77.2995%,32.899475%);fill-opacity:1;" d="M 184.308594 50.910156 L 180.371094 53.46875 L 179.265625 51.761719 L 183.199219 49.207031 L 186.757813 42.300781 L 187.9375 44.109375 L 185.316406 49.039063 L 190.890625 48.660156 L 192.058594 50.457031 L 184.308594 50.910156 "/>
<path style=" stroke:none;fill-rule:nonzero;fill:rgb(95.298767%,77.2995%,32.899475%);fill-opacity:1;" d="M 184.367188 58.707031 L 186.335938 58.582031 C 186.179688 59.550781 186.273438 60.386719 186.613281 61.082031 C 187.136719 62.15625 187.773438 62.511719 188.519531 62.144531 C 188.871094 61.976563 189.144531 61.6875 189.335938 61.277344 C 189.53125 60.867188 189.632813 60.171875 189.640625 59.1875 C 189.648438 58.207031 189.714844 57.515625 189.835938 57.117188 C 189.957031 56.71875 190.15625 56.359375 190.4375 56.039063 C 190.714844 55.71875 191.066406 55.457031 191.492188 55.25 C 192.285156 54.863281 193.089844 54.832031 193.894531 55.160156 C 194.703125 55.488281 195.328125 56.105469 195.773438 57.019531 C 196.355469 58.210938 196.558594 59.191406 196.386719 59.964844 L 194.539063 60.179688 C 194.6875 59.3125 194.585938 58.523438 194.238281 57.8125 C 194.035156 57.390625 193.765625 57.117188 193.429688 56.996094 C 193.09375 56.871094 192.75 56.898438 192.394531 57.070313 C 191.804688 57.355469 191.511719 58.308594 191.515625 59.925781 C 191.515625 60.78125 191.445313 61.429688 191.3125 61.871094 C 191.179688 62.3125 190.960938 62.707031 190.660156 63.046875 C 190.363281 63.390625 189.980469 63.675781 189.519531 63.902344 C 188.6875 64.308594 187.84375 64.3125 186.980469 63.917969 C 186.125 63.523438 185.425781 62.773438 184.886719 61.667969 C 184.417969 60.710938 184.246094 59.722656 184.367188 58.707031 "/>
<path style=" stroke:none;fill-rule:nonzero;fill:rgb(95.298767%,77.2995%,32.899475%);fill-opacity:1;" d="M 199.027344 69.894531 L 189.921875 73.027344 L 189.261719 71.109375 L 198.367188 67.972656 L 197.179688 64.523438 L 198.890625 63.933594 L 201.976563 72.90625 L 200.269531 73.492188 L 199.027344 69.894531 "/>
<path style=" stroke:none;fill-rule:nonzero;fill:rgb(95.298767%,77.2995%,32.899475%);fill-opacity:1;" d="M 202.394531 81.574219 L 199.773438 82.085938 L 200.480469 85.726563 L 198.785156 86.058594 L 198.074219 82.414063 L 194.714844 83.066406 L 195.707031 88.171875 L 193.933594 88.515625 L 192.554688 81.417969 L 203.78125 79.234375 L 205.160156 86.332031 L 203.386719 86.679688 L 202.394531 81.574219 "/>
<g clip-path="url(#clip1)" clip-rule="nonzero">
<path style=" stroke:none;fill-rule:nonzero;fill:rgb(95.298767%,77.2995%,32.899475%);fill-opacity:1;" d="M 195.285156 102.992188 L 195.148438 101.027344 L 201.210938 99.410156 L 194.746094 97.558594 L 194.695313 96.839844 L 200.839844 94.109375 L 194.609375 93.320313 L 194.472656 91.355469 L 206.046875 92.855469 L 206.121094 93.925781 L 198.601563 96.929688 L 206.460938 98.792969 L 206.535156 99.863281 L 195.285156 102.992188 "/>
</g>
<g clip-path="url(#clip2)" clip-rule="nonzero">
<path style=" stroke:none;fill-rule:nonzero;fill:rgb(95.298767%,77.2995%,32.899475%);fill-opacity:1;" d="M 195.6875 105.832031 L 197.457031 106.707031 C 196.839844 107.472656 196.5 108.242188 196.445313 109.015625 C 196.363281 110.207031 196.734375 110.832031 197.566406 110.890625 C 197.953125 110.917969 198.335938 110.800781 198.707031 110.546875 C 199.078125 110.289063 199.515625 109.738281 200.015625 108.890625 C 200.515625 108.042969 200.917969 107.476563 201.222656 107.191406 C 201.523438 106.90625 201.878906 106.695313 202.277344 106.558594 C 202.679688 106.421875 203.113281 106.371094 203.589844 106.402344 C 204.472656 106.464844 205.179688 106.839844 205.714844 107.527344 C 206.25 108.214844 206.484375 109.066406 206.410156 110.078125 C 206.320313 111.398438 206.007813 112.347656 205.46875 112.933594 L 203.761719 112.195313 C 204.324219 111.519531 204.632813 110.785156 204.6875 109.996094 C 204.71875 109.527344 204.621094 109.15625 204.394531 108.882813 C 204.164063 108.609375 203.855469 108.457031 203.460938 108.429688 C 202.808594 108.382813 202.074219 109.0625 201.269531 110.464844 C 200.84375 111.203125 200.460938 111.730469 200.121094 112.046875 C 199.785156 112.363281 199.398438 112.59375 198.972656 112.742188 C 198.539063 112.890625 198.066406 112.945313 197.554688 112.910156 C 196.632813 112.84375 195.894531 112.425781 195.351563 111.65625 C 194.804688 110.882813 194.574219 109.886719 194.660156 108.660156 C 194.734375 107.59375 195.078125 106.652344 195.6875 105.832031 "/>
</g>
<path style=" stroke:none;fill-rule:nonzero;fill:rgb(100%,100%,100%);fill-opacity:1;" d="M 65.847656 119.390625 L 65.847656 121 C 64.292969 123.164063 63.519531 126.289063 63.519531 130.375 C 63.519531 135.238281 64.292969 138.527344 65.847656 140.246094 L 65.847656 142.238281 C 64 140.988281 62.59375 139.332031 61.617188 137.265625 C 60.644531 135.203125 60.160156 132.902344 60.160156 130.363281 C 60.160156 128.191406 60.707031 126.019531 61.800781 123.851563 C 62.894531 121.683594 64.242188 120.195313 65.847656 119.390625 "/>
<path style=" stroke:none;fill-rule:nonzero;fill:rgb(100%,100%,100%);fill-opacity:1;" d="M 80.613281 120.660156 L 79.359375 123.183594 C 78.679688 122.511719 77.585938 122.175781 76.074219 122.175781 C 74.644531 122.175781 73.46875 122.773438 72.554688 123.96875 C 71.640625 125.164063 71.183594 126.679688 71.183594 128.511719 C 71.183594 130.34375 71.605469 131.796875 72.457031 132.871094 C 73.304688 133.949219 74.433594 134.484375 75.851563 134.484375 C 77.46875 134.484375 78.738281 133.90625 79.652344 132.746094 L 81.070313 135.207031 C 79.828125 136.535156 78.003906 137.199219 75.605469 137.199219 C 73.203125 137.199219 71.339844 136.410156 70.007813 134.832031 C 68.679688 133.257813 68.015625 131.105469 68.015625 128.382813 C 68.015625 125.847656 68.753906 123.726563 70.226563 122.019531 C 71.699219 120.316406 73.585938 119.460938 75.886719 119.460938 C 77.859375 119.460938 79.433594 119.863281 80.613281 120.660156 "/>
<path style=" stroke:none;fill-rule:nonzero;fill:rgb(100%,100%,100%);fill-opacity:1;" d="M 83.597656 136.910156 L 86.644531 136.910156 L 86.644531 119.75 L 83.597656 119.75 Z M 83.597656 136.910156 "/>
<path style=" stroke:none;fill-rule:nonzero;fill:rgb(100%,100%,100%);fill-opacity:1;" d="M 89.425781 135.953125 L 90.550781 133.214844 C 91.757813 134.0625 92.941406 134.484375 94.105469 134.484375 C 95.898438 134.484375 96.792969 133.863281 96.792969 132.613281 C 96.792969 132.03125 96.582031 131.472656 96.160156 130.941406 C 95.738281 130.414063 94.863281 129.816406 93.546875 129.160156 C 92.226563 128.5 91.335938 127.957031 90.878906 127.53125 C 90.417969 127.109375 90.066406 126.601563 89.820313 126.015625 C 89.574219 125.433594 89.449219 124.785156 89.449219 124.074219 C 89.449219 122.746094 89.9375 121.648438 90.910156 120.773438 C 91.882813 119.898438 93.132813 119.460938 94.65625 119.460938 C 96.640625 119.460938 98.097656 119.832031 99.027344 120.578125 L 98.101563 123.207031 C 97.03125 122.4375 95.902344 122.054688 94.714844 122.054688 C 94.011719 122.054688 93.464844 122.238281 93.078125 122.609375 C 92.691406 122.980469 92.496094 123.460938 92.496094 124.054688 C 92.496094 125.035156 93.589844 126.058594 95.769531 127.117188 C 96.921875 127.679688 97.75 128.195313 98.257813 128.667969 C 98.765625 129.140625 99.152344 129.691406 99.417969 130.320313 C 99.683594 130.949219 99.820313 131.648438 99.820313 132.421875 C 99.820313 133.8125 99.269531 134.953125 98.171875 135.851563 C 97.074219 136.75 95.605469 137.199219 93.761719 137.199219 C 92.160156 137.199219 90.714844 136.78125 89.425781 135.953125 "/>
<path style=" stroke:none;fill-rule:nonzero;fill:rgb(100%,100%,100%);fill-opacity:1;" d="M 101.671875 135.953125 L 102.796875 133.214844 C 104.003906 134.0625 105.1875 134.484375 106.351563 134.484375 C 108.144531 134.484375 109.039063 133.863281 109.039063 132.613281 C 109.039063 132.03125 108.828125 131.472656 108.402344 130.941406 C 107.980469 130.414063 107.109375 129.816406 105.789063 129.160156 C 104.46875 128.5 103.578125 127.957031 103.121094 127.53125 C 102.664063 127.109375 102.3125 126.601563 102.066406 126.015625 C 101.816406 125.433594 101.695313 124.785156 101.695313 124.074219 C 101.695313 122.746094 102.179688 121.648438 103.152344 120.773438 C 104.128906 119.898438 105.375 119.460938 106.898438 119.460938 C 108.882813 119.460938 110.339844 119.832031 111.269531 120.578125 L 110.34375 123.207031 C 109.273438 122.4375 108.144531 122.054688 106.957031 122.054688 C 106.253906 122.054688 105.710938 122.238281 105.320313 122.609375 C 104.9375 122.980469 104.742188 123.460938 104.742188 124.054688 C 104.742188 125.035156 105.835938 126.058594 108.015625 127.117188 C 109.164063 127.679688 109.992188 128.195313 110.503906 128.667969 C 111.011719 129.140625 111.398438 129.691406 111.664063 130.320313 C 111.929688 130.949219 112.0625 131.648438 112.0625 132.421875 C 112.0625 133.8125 111.515625 134.953125 110.414063 135.851563 C 109.320313 136.75 107.851563 137.199219 106.007813 137.199219 C 104.402344 137.199219 102.960938 136.78125 101.671875 135.953125 "/>
<path style=" stroke:none;fill-rule:nonzero;fill:rgb(100%,100%,100%);fill-opacity:1;" d="M 117.757813 122.402344 L 117.757813 127.875 C 118.269531 127.929688 118.679688 127.957031 118.976563 127.957031 C 120.367188 127.957031 121.386719 127.726563 122.023438 127.261719 C 122.667969 126.800781 122.988281 126.046875 122.988281 125.003906 C 122.988281 123.230469 121.554688 122.34375 118.683594 122.34375 C 118.359375 122.34375 118.054688 122.363281 117.757813 122.402344 Z M 117.757813 130.589844 L 117.757813 136.910156 L 114.707031 136.910156 L 114.707031 119.757813 C 116.738281 119.671875 117.929688 119.628906 118.273438 119.628906 C 120.984375 119.628906 122.96875 120.046875 124.226563 120.875 C 125.480469 121.707031 126.105469 123.003906 126.105469 124.769531 C 126.105469 128.703125 123.785156 130.671875 119.140625 130.671875 C 118.796875 130.671875 118.335938 130.644531 117.757813 130.589844 "/>
<path style=" stroke:none;fill-rule:nonzero;fill:rgb(100%,100%,100%);fill-opacity:1;" d="M 128.972656 142.238281 L 128.972656 140.246094 C 130.523438 138.527344 131.300781 135.238281 131.300781 130.375 C 131.300781 126.289063 130.523438 123.164063 128.972656 121 L 128.972656 119.390625 C 130.574219 120.195313 131.921875 121.683594 133.015625 123.851563 C 134.109375 126.019531 134.65625 128.191406 134.65625 130.363281 C 134.65625 132.902344 134.171875 135.203125 133.199219 137.265625 C 132.226563 139.332031 130.816406 140.988281 128.972656 142.238281 "/>
<path style=" stroke:none;fill-rule:nonzero;fill:rgb(100%,100%,100%);fill-opacity:1;" d="M 139.152344 122.242188 L 138.898438 122.242188 L 138.898438 123.097656 C 139.171875 123.097656 139.355469 123.089844 139.453125 123.078125 C 139.550781 123.0625 139.621094 123.023438 139.667969 122.957031 C 139.714844 122.890625 139.738281 122.792969 139.738281 122.660156 C 139.738281 122.382813 139.542969 122.242188 139.152344 122.242188 Z M 140.015625 125.109375 L 139.1875 123.703125 L 138.898438 123.703125 L 138.898438 125.109375 L 138.195313 125.109375 L 138.195313 121.613281 L 139.152344 121.613281 C 140.011719 121.613281 140.441406 121.953125 140.441406 122.632813 C 140.441406 123.054688 140.246094 123.367188 139.863281 123.570313 L 140.796875 125.109375 Z M 136.984375 123.398438 C 136.984375 124.039063 137.214844 124.585938 137.667969 125.042969 C 138.125 125.496094 138.671875 125.722656 139.3125 125.722656 C 139.953125 125.722656 140.5 125.496094 140.953125 125.042969 C 141.40625 124.589844 141.632813 124.042969 141.632813 123.398438 C 141.632813 122.757813 141.40625 122.210938 140.953125 121.757813 C 140.5 121.304688 139.953125 121.078125 139.3125 121.078125 C 138.667969 121.078125 138.121094 121.304688 137.667969 121.757813 C 137.214844 122.210938 136.984375 122.757813 136.984375 123.398438 Z M 136.246094 123.398438 C 136.246094 122.550781 136.546875 121.832031 137.144531 121.234375 C 137.742188 120.636719 138.464844 120.339844 139.3125 120.339844 C 140.15625 120.339844 140.878906 120.636719 141.476563 121.234375 C 142.074219 121.832031 142.371094 122.550781 142.371094 123.398438 C 142.371094 124.246094 142.074219 124.96875 141.476563 125.566406 C 140.878906 126.164063 140.15625 126.464844 139.3125 126.464844 C 138.464844 126.464844 137.742188 126.164063 137.144531 125.566406 C 136.546875 124.96875 136.246094 124.246094 136.246094 123.398438 "/>
<path style=" stroke:none;fill-rule:nonzero;fill:rgb(95.298767%,77.2995%,32.899475%);fill-opacity:1;" d="M 11.34375 145.347656 L 13.296875 145.15625 C 13.183594 146.125 13.308594 146.953125 13.675781 147.640625 C 14.238281 148.695313 14.886719 149.023438 15.621094 148.632813 C 15.964844 148.449219 16.226563 148.152344 16.40625 147.734375 C 16.585938 147.320313 16.660156 146.621094 16.636719 145.640625 C 16.609375 144.65625 16.652344 143.960938 16.757813 143.558594 C 16.863281 143.15625 17.050781 142.792969 17.316406 142.460938 C 17.585938 142.132813 17.925781 141.859375 18.34375 141.636719 C 19.125 141.21875 19.925781 141.160156 20.746094 141.457031 C 21.566406 141.757813 22.214844 142.355469 22.691406 143.25 C 23.316406 144.421875 23.554688 145.394531 23.410156 146.175781 L 21.582031 146.449219 C 21.691406 145.582031 21.558594 144.800781 21.1875 144.101563 C 20.96875 143.6875 20.6875 143.425781 20.347656 143.316406 C 20.007813 143.203125 19.664063 143.242188 19.316406 143.429688 C 18.738281 143.738281 18.476563 144.699219 18.539063 146.3125 C 18.566406 147.164063 18.523438 147.8125 18.402344 148.261719 C 18.285156 148.707031 18.082031 149.105469 17.796875 149.460938 C 17.511719 149.8125 17.140625 150.113281 16.683594 150.355469 C 15.867188 150.789063 15.023438 150.824219 14.152344 150.460938 C 13.277344 150.097656 12.550781 149.371094 11.972656 148.285156 C 11.472656 147.34375 11.261719 146.363281 11.34375 145.347656 "/>
<path style=" stroke:none;fill-rule:nonzero;fill:rgb(95.298767%,77.2995%,32.899475%);fill-opacity:1;" d="M 25.265625 151.496094 L 23.039063 153.007813 L 25.105469 156.058594 L 23.6875 157.023438 L 21.617188 153.972656 L 18.773438 155.898438 L 21.675781 160.179688 L 20.1875 161.1875 L 16.140625 155.226563 L 25.613281 148.800781 L 29.660156 154.765625 L 28.167969 155.777344 L 25.265625 151.496094 "/>
<path style=" stroke:none;fill-rule:nonzero;fill:rgb(95.298767%,77.2995%,32.899475%);fill-opacity:1;" d="M 36.113281 163.449219 L 34.292969 163.914063 C 34.34375 163.269531 34.042969 162.566406 33.386719 161.804688 C 32.765625 161.082031 31.953125 160.75 30.945313 160.808594 C 29.941406 160.867188 28.976563 161.296875 28.046875 162.09375 C 27.121094 162.894531 26.570313 163.742188 26.394531 164.640625 C 26.21875 165.539063 26.4375 166.347656 27.054688 167.0625 C 27.757813 167.878906 28.601563 168.265625 29.589844 168.222656 L 28.964844 170.011719 C 27.753906 169.957031 26.628906 169.324219 25.582031 168.113281 C 24.539063 166.898438 24.125 165.613281 24.34375 164.253906 C 24.5625 162.898438 25.359375 161.625 26.738281 160.441406 C 28.019531 159.339844 29.414063 158.789063 30.914063 158.789063 C 32.417969 158.792969 33.667969 159.375 34.667969 160.535156 C 35.527344 161.53125 36.007813 162.5 36.113281 163.449219 "/>
<path style=" stroke:none;fill-rule:nonzero;fill:rgb(95.298767%,77.2995%,32.899475%);fill-opacity:1;" d="M 38.703125 165.25 L 40.207031 166.609375 L 35.011719 172.359375 C 34.597656 172.816406 34.40625 173.3125 34.425781 173.847656 C 34.445313 174.386719 34.695313 174.875 35.183594 175.3125 C 35.726563 175.804688 36.277344 176.046875 36.835938 176.042969 C 37.390625 176.035156 37.890625 175.789063 38.328125 175.304688 L 43.5 169.582031 L 45.003906 170.941406 L 39.726563 176.78125 C 38.941406 177.652344 38.03125 178.070313 37 178.039063 C 35.96875 178 34.960938 177.546875 33.984375 176.664063 C 33 175.773438 32.460938 174.84375 32.359375 173.878906 C 32.261719 172.914063 32.617188 171.980469 33.433594 171.082031 L 38.703125 165.25 "/>
<path style=" stroke:none;fill-rule:nonzero;fill:rgb(95.298767%,77.2995%,32.899475%);fill-opacity:1;" d="M 48.441406 175.710938 L 46.621094 178.3125 C 46.910156 178.554688 47.136719 178.730469 47.296875 178.84375 C 47.992188 179.328125 48.570313 179.582031 49.027344 179.609375 C 49.484375 179.640625 49.910156 179.371094 50.308594 178.804688 C 50.628906 178.34375 50.679688 177.902344 50.464844 177.476563 C 50.246094 177.054688 49.769531 176.582031 49.027344 176.066406 C 48.847656 175.941406 48.652344 175.824219 48.441406 175.710938 Z M 46.449219 186.128906 L 46.664063 180.507813 C 46.414063 180.328125 46.074219 180.066406 45.636719 179.726563 L 42.898438 183.652344 L 41.164063 182.441406 L 47.714844 173.054688 C 47.808594 173.121094 48.179688 173.355469 48.832031 173.761719 C 49.480469 174.167969 50 174.507813 50.382813 174.773438 C 52.765625 176.4375 53.3125 178.191406 52.027344 180.035156 C 51.640625 180.589844 51.121094 180.980469 50.472656 181.207031 C 49.828125 181.433594 49.1875 181.46875 48.558594 181.304688 L 48.367188 187.472656 L 46.449219 186.128906 "/>
<path style=" stroke:none;fill-rule:nonzero;fill:rgb(95.298767%,77.2995%,32.899475%);fill-opacity:1;" d="M 51.046875 188.953125 L 56.730469 179.015625 L 58.496094 180.027344 L 52.8125 189.960938 L 51.046875 188.953125 "/>
<path style=" stroke:none;fill-rule:nonzero;fill:rgb(95.298767%,77.2995%,32.899475%);fill-opacity:1;" d="M 64.953125 185.277344 L 60.941406 194.039063 L 59.09375 193.191406 L 63.101563 184.433594 L 59.789063 182.914063 L 60.539063 181.273438 L 69.167969 185.222656 L 68.414063 186.863281 L 64.953125 185.277344 "/>
<path style=" stroke:none;fill-rule:nonzero;fill:rgb(95.298767%,77.2995%,32.899475%);fill-opacity:1;" d="M 73.898438 193.90625 L 72.472656 198.371094 L 70.542969 197.757813 L 71.96875 193.289063 L 70.339844 185.691406 L 72.390625 186.34375 L 73.480469 191.8125 L 77.546875 187.992188 L 79.601563 188.648438 L 73.898438 193.90625 "/>
<path style=" stroke:none;fill-rule:nonzero;fill:rgb(95.298767%,77.2995%,32.899475%);fill-opacity:1;" d="M 89.015625 192.246094 L 88.542969 195.871094 C 88.878906 195.949219 89.144531 196.003906 89.339844 196.03125 C 90.253906 196.148438 90.945313 196.082031 91.40625 195.832031 C 91.867188 195.578125 92.140625 195.109375 92.230469 194.417969 C 92.386719 193.242188 91.519531 192.53125 89.632813 192.285156 C 89.421875 192.257813 89.214844 192.246094 89.015625 192.246094 Z M 88.308594 197.667969 L 87.765625 201.84375 L 85.75 201.582031 L 87.230469 190.230469 C 88.582031 190.347656 89.371094 190.421875 89.597656 190.453125 C 91.390625 190.6875 92.664063 191.132813 93.421875 191.792969 C 94.179688 192.449219 94.480469 193.363281 94.328125 194.53125 C 93.988281 197.136719 92.285156 198.242188 89.21875 197.839844 C 88.988281 197.8125 88.6875 197.753906 88.308594 197.667969 "/>
<g clip-path="url(#clip3)" clip-rule="nonzero">
<path style=" stroke:none;fill-rule:nonzero;fill:rgb(95.298767%,77.2995%,32.899475%);fill-opacity:1;" d="M 99.664063 193.207031 L 99.613281 196.390625 C 99.984375 196.429688 100.269531 196.449219 100.46875 196.453125 C 101.316406 196.46875 101.941406 196.359375 102.335938 196.125 C 102.734375 195.890625 102.9375 195.429688 102.949219 194.734375 C 102.957031 194.171875 102.753906 193.773438 102.335938 193.542969 C 101.917969 193.3125 101.257813 193.1875 100.351563 193.171875 C 100.136719 193.171875 99.90625 193.183594 99.664063 193.207031 Z M 103.851563 202.972656 L 100.871094 198.195313 C 100.5625 198.183594 100.132813 198.15625 99.582031 198.117188 L 99.503906 202.898438 L 97.390625 202.863281 L 97.585938 191.417969 C 97.699219 191.417969 98.140625 191.40625 98.90625 191.378906 C 99.671875 191.355469 100.289063 191.34375 100.757813 191.351563 C 103.664063 191.402344 105.097656 192.550781 105.0625 194.800781 C 105.046875 195.476563 104.839844 196.09375 104.425781 196.640625 C 104.019531 197.191406 103.507813 197.578125 102.894531 197.796875 L 106.183594 203.011719 L 103.851563 202.972656 "/>
</g>
<path style=" stroke:none;fill-rule:nonzero;fill:rgb(95.298767%,77.2995%,32.899475%);fill-opacity:1;" d="M 110.671875 196.847656 C 110.816406 198.175781 111.15625 199.175781 111.6875 199.851563 C 112.222656 200.53125 112.914063 200.820313 113.769531 200.722656 C 114.777344 200.609375 115.507813 200.167969 115.957031 199.398438 C 116.40625 198.625 116.554688 197.5625 116.402344 196.207031 C 116.105469 193.546875 114.976563 192.328125 113.011719 192.550781 C 112.113281 192.652344 111.464844 193.089844 111.0625 193.863281 C 110.664063 194.636719 110.53125 195.632813 110.671875 196.847656 Z M 108.566406 197.082031 C 108.386719 195.464844 108.675781 194.046875 109.4375 192.828125 C 110.199219 191.609375 111.324219 190.917969 112.8125 190.75 C 114.445313 190.566406 115.753906 190.933594 116.730469 191.851563 C 117.710938 192.765625 118.300781 194.140625 118.507813 195.96875 C 118.710938 197.800781 118.421875 199.300781 117.640625 200.476563 C 116.855469 201.65625 115.636719 202.335938 113.972656 202.523438 C 112.445313 202.695313 111.214844 202.292969 110.28125 201.320313 C 109.347656 200.347656 108.773438 198.933594 108.566406 197.082031 "/>
<path style=" stroke:none;fill-rule:nonzero;fill:rgb(95.298767%,77.2995%,32.899475%);fill-opacity:1;" d="M 123.097656 191.039063 L 123.726563 193.644531 L 127.640625 192.695313 L 128.050781 194.382813 L 124.136719 195.332031 L 125.367188 200.421875 L 123.386719 200.902344 L 120.6875 189.765625 L 128.023438 187.988281 L 128.449219 189.742188 L 123.097656 191.039063 "/>
<path style=" stroke:none;fill-rule:nonzero;fill:rgb(95.298767%,77.2995%,32.899475%);fill-opacity:1;" d="M 133.277344 188.136719 L 134.195313 190.640625 L 137.667969 189.367188 L 138.261719 190.984375 L 134.789063 192.257813 L 135.972656 195.480469 L 140.847656 193.691406 L 141.472656 195.394531 L 134.691406 197.878906 L 130.753906 187.128906 L 137.527344 184.644531 L 138.152344 186.347656 L 133.277344 188.136719 "/>
<path style=" stroke:none;fill-rule:nonzero;fill:rgb(95.298767%,77.2995%,32.899475%);fill-opacity:1;" d="M 144.480469 193.386719 L 144.34375 191.417969 C 145.3125 191.574219 146.144531 191.480469 146.84375 191.140625 C 147.910156 190.613281 148.261719 189.976563 147.894531 189.230469 C 147.71875 188.878906 147.429688 188.609375 147.019531 188.414063 C 146.609375 188.222656 145.914063 188.121094 144.9375 188.117188 C 143.953125 188.109375 143.265625 188.046875 142.867188 187.925781 C 142.46875 187.804688 142.109375 187.605469 141.789063 187.328125 C 141.472656 187.050781 141.207031 186.699219 140.996094 186.273438 C 140.605469 185.480469 140.570313 184.679688 140.894531 183.871094 C 141.21875 183.0625 141.835938 182.433594 142.746094 181.984375 C 143.933594 181.398438 144.910156 181.191406 145.6875 181.359375 L 145.902344 183.199219 C 145.039063 183.058594 144.253906 183.164063 143.546875 183.515625 C 143.125 183.722656 142.855469 183.992188 142.730469 184.328125 C 142.609375 184.664063 142.636719 185.011719 142.8125 185.363281 C 143.101563 185.953125 144.054688 186.242188 145.671875 186.234375 C 146.523438 186.230469 147.171875 186.296875 147.617188 186.429688 C 148.058594 186.5625 148.453125 186.777344 148.796875 187.074219 C 149.140625 187.371094 149.425781 187.75 149.65625 188.214844 C 150.0625 189.042969 150.070313 189.890625 149.683594 190.75 C 149.289063 191.609375 148.542969 192.3125 147.441406 192.855469 C 146.480469 193.328125 145.496094 193.503906 144.480469 193.386719 "/>
<path style=" stroke:none;fill-rule:nonzero;fill:rgb(95.298767%,77.2995%,32.899475%);fill-opacity:1;" d="M 153.652344 188.671875 L 153.320313 186.734375 C 154.300781 186.785156 155.117188 186.601563 155.773438 186.191406 C 156.785156 185.558594 157.070313 184.890625 156.628906 184.1875 C 156.421875 183.855469 156.105469 183.617188 155.679688 183.464844 C 155.253906 183.316406 154.554688 183.285156 153.574219 183.378906 C 152.597656 183.472656 151.90625 183.480469 151.496094 183.402344 C 151.089844 183.320313 150.710938 183.160156 150.363281 182.917969 C 150.019531 182.671875 149.722656 182.351563 149.472656 181.949219 C 149.003906 181.203125 148.890625 180.40625 149.128906 179.570313 C 149.371094 178.734375 149.921875 178.046875 150.78125 177.507813 C 151.902344 176.804688 152.855469 176.5 153.644531 176.59375 L 154.054688 178.410156 C 153.175781 178.347656 152.398438 178.527344 151.730469 178.949219 C 151.332031 179.195313 151.089844 179.492188 151.003906 179.839844 C 150.914063 180.183594 150.976563 180.523438 151.183594 180.859375 C 151.53125 181.414063 152.511719 181.605469 154.117188 181.433594 C 154.96875 181.34375 155.617188 181.34375 156.070313 181.429688 C 156.527344 181.519531 156.941406 181.691406 157.3125 181.953125 C 157.6875 182.214844 158.007813 182.5625 158.28125 183 C 158.769531 183.785156 158.867188 184.625 158.5625 185.519531 C 158.257813 186.414063 157.585938 187.191406 156.542969 187.839844 C 155.636719 188.40625 154.671875 188.683594 153.652344 188.671875 "/>
<path style=" stroke:none;fill-rule:nonzero;fill:rgb(95.298767%,77.2995%,32.899475%);fill-opacity:1;" d="M 162.910156 183.347656 L 156.089844 174.160156 L 157.71875 172.949219 L 164.542969 182.132813 L 162.910156 183.347656 "/>
<path style=" stroke:none;fill-rule:nonzero;fill:rgb(95.298767%,77.2995%,32.899475%);fill-opacity:1;" d="M 165.359375 174.039063 C 166.261719 175.03125 167.125 175.648438 167.953125 175.890625 C 168.78125 176.128906 169.519531 175.957031 170.160156 175.375 C 170.914063 174.695313 171.246094 173.90625 171.160156 173.015625 C 171.074219 172.125 170.570313 171.167969 169.652344 170.152344 C 167.851563 168.164063 166.214844 167.835938 164.746094 169.167969 C 164.074219 169.777344 163.804688 170.511719 163.933594 171.375 C 164.0625 172.242188 164.535156 173.128906 165.359375 174.039063 Z M 163.804688 175.453125 C 162.707031 174.246094 162.113281 172.925781 162.019531 171.488281 C 161.925781 170.054688 162.429688 168.832031 163.535156 167.832031 C 164.757813 166.726563 166.03125 166.261719 167.363281 166.433594 C 168.691406 166.605469 169.976563 167.375 171.214844 168.742188 C 172.449219 170.109375 173.097656 171.496094 173.148438 172.910156 C 173.203125 174.324219 172.609375 175.589844 171.371094 176.710938 C 170.230469 177.742188 169 178.136719 167.671875 177.890625 C 166.34375 177.648438 165.054688 176.832031 163.804688 175.453125 "/>
<path style=" stroke:none;fill-rule:nonzero;fill:rgb(95.298767%,77.2995%,32.899475%);fill-opacity:1;" d="M 183.15625 164.199219 L 174.035156 163.761719 L 179.441406 168.335938 L 178.183594 169.824219 L 169.445313 162.433594 L 170.074219 161.6875 L 178.851563 162.027344 L 173.566406 157.558594 L 174.828125 156.070313 L 183.691406 163.570313 L 183.15625 164.199219 "/>
<path style=" stroke:none;fill-rule:nonzero;fill:rgb(95.298767%,77.2995%,32.899475%);fill-opacity:1;" d="M 181.773438 151.886719 L 184.566406 155.347656 L 186.070313 153.027344 Z M 190.097656 153.925781 L 187.695313 153.371094 L 185.550781 156.679688 L 187.058594 158.613281 L 185.832031 160.5 L 178.589844 150.351563 L 179.074219 149.601563 L 191.3125 152.054688 L 190.097656 153.925781 "/>
<path style=" stroke:none;fill-rule:nonzero;fill:rgb(95.298767%,77.2995%,32.899475%);fill-opacity:1;" d="M 193.015625 148.847656 L 182.753906 143.785156 L 183.652344 141.957031 L 192.296875 146.222656 L 194.585938 141.582031 L 196.203125 142.382813 L 193.015625 148.847656 "/>
<path style=" stroke:none;fill-rule:nonzero;fill:rgb(95.298767%,77.2995%,32.899475%);fill-opacity:1;" d="M 6.625 129.367188 C 6.625 127.523438 8.117188 126.03125 9.957031 126.03125 C 11.800781 126.03125 13.292969 127.523438 13.292969 129.367188 C 13.292969 131.207031 11.800781 132.703125 9.957031 132.703125 C 8.117188 132.703125 6.625 131.207031 6.625 129.367188 "/>
<path style=" stroke:none;fill-rule:nonzero;fill:rgb(95.298767%,77.2995%,32.899475%);fill-opacity:1;" d="M 193.4375 126.957031 C 193.4375 125.117188 194.929688 123.625 196.769531 123.625 C 198.613281 123.625 200.105469 125.117188 200.105469 126.957031 C 200.105469 128.800781 198.613281 130.292969 196.769531 130.292969 C 194.929688 130.292969 193.4375 128.800781 193.4375 126.957031 "/>
</g>
</svg>
