<?xml version="1.0" encoding="UTF-8"?>
<svg xmlns="http://www.w3.org/2000/svg" xmlns:xlink="http://www.w3.org/1999/xlink" width="101pt" height="110pt" viewBox="0 0 101 110" version="1.1">
<g id="surface1">
<path style=" stroke:none;fill-rule:evenodd;fill:rgb(13.699341%,12.199402%,12.5%);fill-opacity:1;" d="M 50.636719 109.375 C 30.007813 104.453125 1.570313 89.125 0.648438 64.65625 C 0.648438 43.347656 0.648438 22.039063 0.648438 0.734375 C 33.972656 0.734375 67.300781 0.734375 100.628906 0.734375 C 100.628906 22.039063 100.628906 43.347656 100.628906 64.65625 C 99.707031 89.125 71.269531 104.453125 50.636719 109.375 Z M 3.746094 36.820313 L 97.53125 36.820313 L 97.53125 3.828125 C 66.269531 3.828125 35.007813 3.828125 3.746094 3.828125 Z M 97.53125 39.628906 L 3.746094 39.628906 L 3.746094 64.59375 C 4.664063 87.230469 31.777344 101.53125 50.636719 106.191406 C 69.5 101.53125 96.613281 87.230469 97.53125 64.59375 L 97.53125 39.628906 "/>
<path style=" stroke:none;fill-rule:evenodd;fill:rgb(0%,65.098572%,31.399536%);fill-opacity:1;" d="M 97.53125 39.628906 L 3.746094 39.628906 L 3.746094 64.59375 C 4.664063 87.230469 31.777344 101.53125 50.636719 106.191406 C 69.5 101.53125 96.613281 87.230469 97.53125 64.59375 L 97.53125 39.628906 "/>
<path style=" stroke:none;fill-rule:evenodd;fill:rgb(100%,100%,100%);fill-opacity:1;" d="M 26.507813 82.40625 C 26.109375 83.21875 26.332031 83.523438 27.183594 83.316406 C 28.558594 82.339844 29.933594 81.359375 31.3125 80.378906 C 31.632813 79.53125 31.367188 79.1875 30.519531 79.351563 C 29.183594 80.371094 27.847656 81.386719 26.507813 82.40625 Z M 69.882813 59.050781 L 71.632813 59.050781 L 71.632813 59.984375 L 69.882813 59.984375 Z M 49.851563 42.320313 C 50.207031 42.144531 50.5625 42.117188 50.917969 42.171875 L 50.902344 43.226563 L 49.851563 43.226563 Z M 49.910156 50.117188 L 51.078125 50.117188 L 51.078125 53.5625 L 49.910156 53.5625 Z M 26.902344 49.238281 C 26.03125 48.621094 25.570313 49.402344 26.027344 50.289063 C 28.050781 51.59375 30.074219 52.898438 32.101563 54.203125 C 33.152344 54.496094 33.34375 54.242188 32.683594 53.445313 C 30.757813 52.042969 28.832031 50.640625 26.902344 49.238281 Z M 20.65625 49.066406 C 21.164063 50.46875 20.207031 50.761719 19.546875 49.296875 C 17.324219 42.730469 27.398438 40.148438 29.238281 45.675781 C 29.355469 47.007813 29.082031 47.085938 28.421875 45.910156 C 26.429688 43.203125 22.429688 43.019531 20.597656 46.027344 C 20.378906 47.011719 20.246094 48.003906 20.65625 49.066406 Z M 51.460938 54.8125 C 51.421875 61.644531 51.433594 68.480469 51.394531 75.3125 C 58.703125 73.085938 57.210938 78.199219 64.640625 76.386719 C 64.734375 69.136719 64.824219 61.886719 64.917969 54.632813 C 62.785156 55.390625 60.652344 55.890625 58.519531 54.574219 C 55.722656 53.382813 53.371094 53.460938 51.460938 54.8125 Z M 50.261719 54.902344 C 50.300781 61.597656 50.339844 68.296875 50.378906 74.992188 C 42.820313 73.152344 44.027344 77.472656 36.304688 76.042969 C 36.207031 68.9375 36.109375 61.832031 36.011719 54.730469 C 38.269531 55.472656 40.527344 55.960938 42.785156 54.671875 C 45.746094 53.503906 48.238281 53.582031 50.261719 54.902344 Z M 45.808594 44.617188 L 54.761719 44.558594 C 55.34375 44.554688 55.816406 45.03125 55.816406 45.613281 C 55.816406 46.195313 55.339844 46.667969 54.761719 46.671875 L 45.808594 46.730469 C 45.226563 46.734375 44.75 46.253906 44.75 45.671875 C 44.75 45.09375 45.226563 44.621094 45.808594 44.617188 Z M 70.113281 73.707031 L 71.867188 73.707031 L 71.867188 74.640625 L 70.113281 74.640625 Z M 77.734375 64.453125 C 78.046875 63.214844 78.625 62.878906 78.902344 64.421875 C 79.058594 65.882813 79.214844 67.34375 79.371094 68.800781 C 78.804688 69.246094 76.949219 71.261719 77.035156 69.445313 C 77.074219 68.578125 77.574219 64.453125 77.734375 64.453125 Z M 61.410156 90.246094 C 62.046875 89.960938 61.996094 90.292969 61.847656 90.714844 C 61.363281 93.046875 59.777344 93.875 57.574219 93.859375 C 56.730469 93.898438 56.136719 93.839844 57.253906 93.09375 C 58.636719 92.144531 60.023438 91.195313 61.410156 90.246094 Z M 49.523438 81.320313 L 50.839844 81.320313 C 50.839844 84.257813 50.839844 87.191406 50.839844 90.128906 C 50.402344 90.597656 49.960938 90.597656 49.523438 90.128906 Z M 18.609375 74.757813 C 18.519531 73.355469 18.777344 73.617188 19.195313 74.640625 C 21.613281 82.59375 27.695313 88.585938 37.121094 92.800781 C 38.71875 93.679688 38.570313 93.894531 36.65625 93.445313 C 32.800781 92.285156 28.945313 90.242188 25.09375 86.902344 C 24.976563 85.367188 24.160156 84.449219 22.640625 84.160156 C 19.957031 80.921875 19.25 77.835938 18.609375 74.757813 Z M 22.351563 86.722656 C 23.242188 86.898438 23.402344 86.800781 23.933594 85.929688 C 23.941406 85.722656 23.914063 85.519531 23.84375 85.3125 C 22.847656 84.289063 21.078125 86.09375 22.351563 86.722656 Z M 76.769531 81.296875 C 76.5 82.738281 76.925781 82.933594 78.054688 81.882813 C 79.246094 79.15625 80.355469 76.199219 80.449219 70.496094 C 80.136719 69.761719 79.84375 69.300781 79.691406 70.730469 C 79.679688 74.652344 78.648438 78.152344 76.769531 81.296875 Z M 69.417969 80.835938 C 68.609375 80.230469 69.203125 79.464844 70.105469 80.117188 C 72.429688 81.632813 74.75 83.148438 77.074219 84.667969 C 77.769531 85.152344 77.332031 85.984375 76.355469 85.769531 C 75.976563 85.289063 75.582031 84.675781 75.199219 84.199219 C 74.507813 83.882813 74.15625 83.914063 73.851563 83.992188 C 72.371094 82.953125 70.902344 81.871094 69.417969 80.835938 Z M 65.574219 55.238281 L 65.550781 77.273438 L 65.460938 77.371094 C 64.039063 78.0625 62.617188 77.875 61.195313 77.558594 C 58.292969 76.507813 55.519531 75.394531 52.53125 76.761719 C 51.5 77.433594 51.71875 77.730469 53.1875 77.652344 C 54.980469 77.199219 56.714844 77.183594 58.386719 77.605469 C 60.351563 78.46875 62.367188 79.175781 64.710938 78.78125 L 65.964844 78.4375 L 66.296875 78.4375 L 66.296875 55.238281 Z M 35.03125 54.492188 L 35.054688 76.527344 L 35.144531 76.625 C 40.5 79.457031 44.964844 74.480469 49.714844 76.433594 C 50.746094 77.109375 50.527344 77.40625 49.058594 77.328125 C 44.4375 76.441406 40.851563 79.398438 35.894531 78.03125 L 34.640625 77.691406 L 34.304688 77.691406 L 34.304688 54.492188 Z M 45.222656 78.03125 C 43.097656 78.628906 43.550781 78.820313 45.175781 78.828125 C 46.515625 78.777344 48.714844 78.367188 49.625 79.671875 C 50.492188 80.46875 51.554688 80.476563 52.671875 79.957031 C 53.585938 79.34375 54.640625 78.886719 56.183594 78.96875 C 57.277344 79.078125 58.371094 79.257813 59.464844 79.367188 C 63.265625 79.464844 56.941406 77.28125 53.746094 78.453125 C 52.363281 79.207031 51.023438 79.71875 49.953125 78.78125 C 49.039063 77.792969 47.53125 77.722656 45.222656 78.03125 Z M 31.839844 55.132813 L 32.808594 55.164063 C 32.871094 62.816406 33.0625 70.601563 33.253906 78.382813 C 35.964844 78.375 37.289063 78.96875 37.234375 79.445313 C 35.59375 79.484375 34 79.34375 32.359375 79.382813 Z M 67.351563 55.519531 L 67.328125 78.71875 L 68.074219 78.71875 L 68.074219 55.519531 Z M 63.457031 92.507813 C 62.191406 92.996094 62.40625 93.25 64.101563 93.269531 C 68.226563 91.613281 71.730469 89.335938 74.609375 86.4375 C 75.175781 84.683594 74.726563 84.414063 73.269531 85.617188 C 73.769531 86.289063 63.832031 93.027344 63.457031 92.507813 Z M 65.367188 53.738281 C 65.820313 53.785156 66.695313 53.929688 67.148438 53.976563 C 70.457031 51.53125 73.765625 49.089844 77.078125 46.644531 C 77.429688 45.839844 77.351563 45.386719 76.328125 45.707031 C 75.304688 46.027344 65.226563 53.691406 65.367188 53.738281 Z M 3.746094 36.820313 L 97.53125 36.820313 L 97.53125 3.828125 C 66.269531 3.828125 35.007813 3.828125 3.746094 3.828125 L 3.746094 36.820313 "/>
<path style=" stroke:none;fill-rule:evenodd;fill:rgb(13.699341%,12.199402%,12.5%);fill-opacity:1;" d="M 26.507813 82.40625 C 26.109375 83.21875 26.332031 83.523438 27.183594 83.316406 C 28.558594 82.339844 29.933594 81.359375 31.3125 80.378906 C 31.632813 79.53125 31.367188 79.1875 30.519531 79.351563 C 29.183594 80.371094 27.847656 81.386719 26.507813 82.40625 Z M 69.882813 59.050781 L 71.632813 59.050781 L 71.632813 59.984375 L 69.882813 59.984375 Z M 49.851563 42.320313 C 50.207031 42.144531 50.5625 42.117188 50.917969 42.171875 L 50.902344 43.226563 L 49.851563 43.226563 Z M 29.273438 72.761719 L 30.8125 72.761719 L 30.570313 60.703125 L 28.804688 60.703125 L 28.804688 57.777344 L 30.511719 57.777344 L 30.441406 54.5 C 29.585938 53.835938 28.726563 53.171875 27.867188 52.507813 C 27.257813 52.246094 26.605469 52.066406 25.761719 52.273438 C 22.289063 53.207031 19.832031 52.503906 18.386719 50.167969 C 15.160156 44.398438 22.878906 39.746094 27.632813 42.558594 C 31.128906 44.488281 31.308594 46.636719 29.972656 48.878906 C 32.121094 50.480469 34.265625 52.078125 36.414063 53.679688 C 38.847656 54.4375 41.003906 54.085938 42.96875 52.976563 C 44.671875 52.21875 46.984375 52.390625 48.707031 52.742188 C 48.824219 51.804688 48.707031 50.753906 48.824219 49.816406 C 46.871094 50.242188 44.921875 49.890625 42.96875 48.761719 C 42.578125 47.28125 42.503906 45.796875 42.734375 44.3125 C 44.726563 43.417969 46.816406 43.066406 48.808594 43.257813 C 48.847656 42.832031 48.785156 42.402344 48.824219 41.972656 C 50.1875 41.402344 51.671875 41.277344 52.949219 42 C 52.949219 42.351563 52.964844 42.90625 52.964844 43.257813 C 54.175781 43.257813 55.339844 43.257813 56.550781 43.257813 C 57.261719 43.433594 58.316406 43.746094 58.480469 44.078125 C 58.757813 45.667969 58.863281 47.152344 58.363281 49.054688 C 56.976563 49.738281 55.046875 49.796875 53.507813 49.699219 C 53.507813 50.636719 53.507813 51.570313 53.507813 52.507813 C 55.300781 52.355469 57.09375 52.132813 58.890625 53.09375 C 60.375 53.816406 61.855469 53.894531 63.339844 53.679688 C 67.4375 50.597656 71.535156 47.511719 75.632813 44.429688 C 77.890625 43.113281 80.578125 45.335938 78.441406 47.707031 C 75.59375 49.816406 72.746094 51.921875 69.894531 54.03125 C 69.933594 55.394531 69.972656 56.761719 70.011719 58.128906 C 70.910156 58.167969 71.808594 58.207031 72.707031 58.246094 C 72.746094 59.257813 72.785156 60.273438 72.824219 61.289063 C 71.847656 61.25 70.988281 61.269531 70.011719 61.230469 C 70.050781 65.09375 69.972656 68.898438 70.011719 72.761719 C 70.949219 72.761719 71.886719 72.761719 72.824219 72.761719 C 72.785156 73.855469 72.746094 74.945313 72.707031 76.039063 C 71.769531 76.078125 71.007813 76 70.070313 76.039063 C 70.03125 76.351563 69.933594 76.839844 69.894531 77.152344 C 71.730469 78.4375 73.445313 79.667969 75.28125 80.957031 C 77.570313 77.601563 78.253906 74.242188 78.207031 70.886719 C 77.054688 71.941406 75.964844 72.761719 75.28125 71.941406 C 76.027344 67.03125 76.503906 61.589844 78.558594 59.296875 C 81.296875 63.253906 82.710938 67.738281 84.53125 72.058594 C 83.242188 72.097656 82.1875 71.589844 81.367188 70.535156 C 82.246094 75.441406 81.496094 79.992188 78.792969 84.117188 C 80.875 86.082031 77.695313 88.949219 75.632813 87.511719 C 72.398438 90.628906 68.792969 93.210938 64.160156 94.300781 C 64.929688 94.742188 65.808594 95.503906 66.734375 96.410156 C 61.402344 96.117188 52.0625 96.65625 52.6875 95.121094 C 55.96875 91.875 59.941406 89.433594 64.160156 87.277344 C 64.175781 88.847656 63.554688 90.3125 62.636719 91.726563 C 66.558594 90.03125 70.027344 87.878906 72.238281 84.46875 C 70.363281 82.984375 68.492188 81.503906 66.617188 80.019531 C 62.519531 80.136719 58.421875 80.253906 54.324219 80.371094 C 53.816406 80.722656 53.308594 81.074219 52.804688 81.425781 C 52.84375 84.351563 52.882813 87.277344 52.921875 90.207031 C 52.921875 91.117188 52.0625 91.441406 50.8125 91.492188 C 49.492188 91.457031 48.339844 91.300781 48.355469 90.320313 C 48.277344 87.082031 48.433594 83.578125 48.355469 80.339844 C 43.632813 80.261719 38.675781 80.449219 33.957031 80.371094 C 32.003906 81.816406 30.050781 83.257813 28.101563 84.703125 C 35.007813 89.890625 41.285156 93.632813 46.011719 93.835938 C 48.308594 94.457031 48.269531 94.847656 45.894531 95.003906 C 38.761719 95.503906 31.6875 93.472656 24.707031 87.746094 C 23.976563 88.289063 22.96875 88.589844 22.132813 88.097656 C 21.574219 87.859375 21.125 87.4375 20.726563 86.925781 C 20.386719 86.226563 20.558594 85.480469 21.078125 84.703125 C 18.863281 80.957031 17.867188 77.210938 17.214844 73.464844 C 16.894531 70.121094 17.25 67.121094 17.566406 64.097656 C 17.441406 62.78125 19.113281 61.597656 19.085938 64.332031 C 19.332031 70 20.601563 76.128906 25.527344 81.484375 C 27.320313 80.351563 29.117188 78.691406 30.910156 77.5625 L 30.875 75.6875 L 29.273438 75.6875 Z M 49.910156 50.117188 L 51.078125 50.117188 L 51.078125 53.5625 L 49.910156 53.5625 Z M 24.460938 49.695313 C 24.285156 48.039063 24.953125 46.976563 27.125 46.964844 C 28.175781 43.902344 23.039063 44.113281 22 45.644531 C 19.371094 49.15625 24.378906 50.972656 24.460938 49.695313 Z M 26.902344 49.238281 C 26.03125 48.621094 25.570313 49.402344 26.027344 50.289063 C 28.050781 51.59375 30.074219 52.898438 32.101563 54.203125 C 33.152344 54.496094 33.34375 54.242188 32.683594 53.445313 C 30.757813 52.042969 28.832031 50.640625 26.902344 49.238281 Z M 20.65625 49.066406 C 21.164063 50.46875 20.207031 50.761719 19.546875 49.296875 C 17.324219 42.730469 27.398438 40.148438 29.238281 45.675781 C 29.355469 47.007813 29.082031 47.085938 28.421875 45.910156 C 26.429688 43.203125 22.429688 43.019531 20.597656 46.027344 C 20.378906 47.011719 20.246094 48.003906 20.65625 49.066406 Z M 51.460938 54.8125 C 51.421875 61.644531 51.433594 68.480469 51.394531 75.3125 C 58.703125 73.085938 57.210938 78.199219 64.640625 76.386719 C 64.734375 69.136719 64.824219 61.886719 64.917969 54.632813 C 62.785156 55.390625 60.652344 55.890625 58.519531 54.574219 C 55.722656 53.382813 53.371094 53.460938 51.460938 54.8125 Z M 50.261719 54.902344 C 50.300781 61.597656 50.339844 68.296875 50.378906 74.992188 C 42.820313 73.152344 44.027344 77.472656 36.304688 76.042969 C 36.207031 68.9375 36.109375 61.832031 36.011719 54.730469 C 38.269531 55.472656 40.527344 55.960938 42.785156 54.671875 C 45.746094 53.503906 48.238281 53.582031 50.261719 54.902344 Z M 45.808594 44.617188 L 54.761719 44.558594 C 55.34375 44.554688 55.816406 45.03125 55.816406 45.613281 C 55.816406 46.195313 55.339844 46.667969 54.761719 46.671875 L 45.808594 46.730469 C 45.226563 46.734375 44.75 46.253906 44.75 45.671875 C 44.75 45.09375 45.226563 44.621094 45.808594 44.617188 Z M 70.113281 73.707031 L 71.867188 73.707031 L 71.867188 74.640625 L 70.113281 74.640625 Z M 77.734375 64.453125 C 78.046875 63.214844 78.625 62.878906 78.902344 64.421875 C 79.058594 65.882813 79.214844 67.34375 79.371094 68.800781 C 78.804688 69.246094 76.949219 71.261719 77.035156 69.445313 C 77.074219 68.578125 77.574219 64.453125 77.734375 64.453125 Z M 61.410156 90.246094 C 62.046875 89.960938 61.996094 90.292969 61.847656 90.714844 C 61.363281 93.046875 59.777344 93.875 57.574219 93.859375 C 56.730469 93.898438 56.136719 93.839844 57.253906 93.09375 C 58.636719 92.144531 60.023438 91.195313 61.410156 90.246094 Z M 49.523438 81.320313 L 50.839844 81.320313 C 50.839844 84.257813 50.839844 87.191406 50.839844 90.128906 C 50.402344 90.597656 49.960938 90.597656 49.523438 90.128906 Z M 18.609375 74.757813 C 18.519531 73.355469 18.777344 73.617188 19.195313 74.640625 C 21.613281 82.59375 27.695313 88.585938 37.121094 92.800781 C 38.71875 93.679688 38.570313 93.894531 36.65625 93.445313 C 32.800781 92.285156 28.945313 90.242188 25.09375 86.902344 C 24.976563 85.367188 24.160156 84.449219 22.640625 84.160156 C 19.957031 80.921875 19.25 77.835938 18.609375 74.757813 Z M 22.351563 86.722656 C 23.242188 86.898438 23.402344 86.800781 23.933594 85.929688 C 23.941406 85.722656 23.914063 85.519531 23.84375 85.3125 C 22.847656 84.289063 21.078125 86.09375 22.351563 86.722656 Z M 76.769531 81.296875 C 76.5 82.738281 76.925781 82.933594 78.054688 81.882813 C 79.246094 79.15625 80.355469 76.199219 80.449219 70.496094 C 80.136719 69.761719 79.84375 69.300781 79.691406 70.730469 C 79.679688 74.652344 78.648438 78.152344 76.769531 81.296875 Z M 69.417969 80.835938 C 68.609375 80.230469 69.203125 79.464844 70.105469 80.117188 C 72.429688 81.632813 74.75 83.148438 77.074219 84.667969 C 77.769531 85.152344 77.332031 85.984375 76.355469 85.769531 C 75.976563 85.289063 75.582031 84.675781 75.199219 84.199219 C 74.507813 83.882813 74.15625 83.914063 73.851563 83.992188 C 72.371094 82.953125 70.902344 81.871094 69.417969 80.835938 Z M 65.574219 55.238281 L 65.550781 77.273438 L 65.460938 77.371094 C 64.039063 78.0625 62.617188 77.875 61.195313 77.558594 C 58.292969 76.507813 55.519531 75.394531 52.53125 76.761719 C 51.5 77.433594 51.71875 77.730469 53.1875 77.652344 C 54.980469 77.199219 56.714844 77.183594 58.386719 77.605469 C 60.351563 78.46875 62.367188 79.175781 64.710938 78.78125 L 65.964844 78.4375 L 66.296875 78.4375 L 66.296875 55.238281 Z M 35.03125 54.492188 L 35.054688 76.527344 L 35.144531 76.625 C 40.5 79.457031 44.964844 74.480469 49.714844 76.433594 C 50.746094 77.109375 50.527344 77.40625 49.058594 77.328125 C 44.4375 76.441406 40.851563 79.398438 35.894531 78.03125 L 34.640625 77.691406 L 34.304688 77.691406 L 34.304688 54.492188 Z M 45.222656 78.03125 C 43.097656 78.628906 43.550781 78.820313 45.175781 78.828125 C 46.515625 78.777344 48.714844 78.367188 49.625 79.671875 C 50.492188 80.46875 51.554688 80.476563 52.671875 79.957031 C 53.585938 79.34375 54.640625 78.886719 56.183594 78.96875 C 57.277344 79.078125 58.371094 79.257813 59.464844 79.367188 C 63.265625 79.464844 56.941406 77.28125 53.746094 78.453125 C 52.363281 79.207031 51.023438 79.71875 49.953125 78.78125 C 49.039063 77.792969 47.53125 77.722656 45.222656 78.03125 Z M 31.839844 55.132813 L 32.808594 55.164063 C 32.871094 62.816406 33.0625 70.601563 33.253906 78.382813 C 35.964844 78.375 37.289063 78.96875 37.234375 79.445313 C 35.59375 79.484375 34 79.34375 32.359375 79.382813 Z M 67.351563 55.519531 L 67.328125 78.71875 L 68.074219 78.71875 L 68.074219 55.519531 Z M 63.457031 92.507813 C 62.191406 92.996094 62.40625 93.25 64.101563 93.269531 C 68.226563 91.613281 71.730469 89.335938 74.609375 86.4375 C 75.175781 84.683594 74.726563 84.414063 73.269531 85.617188 C 73.769531 86.289063 63.832031 93.027344 63.457031 92.507813 Z M 65.367188 53.738281 C 65.820313 53.785156 66.695313 53.929688 67.148438 53.976563 C 70.457031 51.53125 73.765625 49.089844 77.078125 46.644531 C 77.429688 45.839844 77.351563 45.386719 76.328125 45.707031 C 75.304688 46.027344 65.226563 53.691406 65.367188 53.738281 "/>
<path style=" stroke:none;fill-rule:evenodd;fill:rgb(13.699341%,12.199402%,12.5%);fill-opacity:1;" d="M 39.976563 70.136719 C 39.992188 70.496094 39.960938 70.855469 39.976563 71.21875 C 42.195313 71.335938 45.648438 69.453125 47.449219 71.195313 C 47.476563 70.707031 47.394531 70.433594 47.421875 69.949219 C 44.96875 68.609375 42.476563 70.433594 39.976563 70.136719 "/>
<path style=" stroke:none;fill-rule:evenodd;fill:rgb(13.699341%,12.199402%,12.5%);fill-opacity:1;" d="M 61.480469 70.136719 C 61.464844 70.496094 61.496094 70.855469 61.480469 71.21875 C 59.261719 71.335938 55.808594 69.453125 54.007813 71.195313 C 53.976563 70.707031 54.0625 70.433594 54.03125 69.949219 C 56.488281 68.609375 58.976563 70.433594 61.480469 70.136719 "/>
<path style=" stroke:none;fill-rule:evenodd;fill:rgb(13.699341%,12.199402%,12.5%);fill-opacity:1;" d="M 39.929688 68.070313 C 39.945313 68.429688 39.914063 68.789063 39.929688 69.148438 C 42.148438 69.269531 45.597656 67.386719 47.398438 69.125 C 47.429688 68.640625 47.34375 68.367188 47.375 67.882813 C 44.921875 66.542969 42.429688 68.367188 39.929688 68.070313 "/>
<path style=" stroke:none;fill-rule:evenodd;fill:rgb(13.699341%,12.199402%,12.5%);fill-opacity:1;" d="M 61.527344 68.070313 C 61.511719 68.429688 61.542969 68.789063 61.527344 69.148438 C 59.308594 69.269531 55.855469 67.386719 54.054688 69.125 C 54.023438 68.640625 54.109375 68.367188 54.078125 67.882813 C 56.535156 66.542969 59.023438 68.367188 61.527344 68.070313 "/>
<path style=" stroke:none;fill-rule:evenodd;fill:rgb(13.699341%,12.199402%,12.5%);fill-opacity:1;" d="M 39.929688 65.765625 C 39.945313 66.128906 39.914063 66.488281 39.929688 66.847656 C 42.148438 66.96875 45.597656 65.082031 47.398438 66.824219 C 47.429688 66.339844 47.34375 66.066406 47.375 65.578125 C 44.921875 64.238281 42.429688 66.066406 39.929688 65.765625 "/>
<path style=" stroke:none;fill-rule:evenodd;fill:rgb(13.699341%,12.199402%,12.5%);fill-opacity:1;" d="M 61.527344 65.765625 C 61.511719 66.128906 61.542969 66.488281 61.527344 66.847656 C 59.308594 66.96875 55.855469 65.082031 54.054688 66.824219 C 54.023438 66.339844 54.109375 66.066406 54.078125 65.578125 C 56.535156 64.238281 59.023438 66.066406 61.527344 65.765625 "/>
<path style=" stroke:none;fill-rule:evenodd;fill:rgb(13.699341%,12.199402%,12.5%);fill-opacity:1;" d="M 39.976563 63.699219 C 39.992188 64.058594 39.960938 64.421875 39.976563 64.78125 C 42.195313 64.902344 45.648438 63.015625 47.449219 64.757813 C 47.476563 64.273438 47.394531 63.996094 47.421875 63.511719 C 44.96875 62.171875 42.476563 64 39.976563 63.699219 "/>
<path style=" stroke:none;fill-rule:evenodd;fill:rgb(13.699341%,12.199402%,12.5%);fill-opacity:1;" d="M 61.480469 63.699219 C 61.464844 64.058594 61.496094 64.421875 61.480469 64.78125 C 59.261719 64.902344 55.808594 63.015625 54.007813 64.757813 C 53.976563 64.273438 54.0625 63.996094 54.03125 63.511719 C 56.488281 62.171875 58.976563 64 61.480469 63.699219 "/>
<path style=" stroke:none;fill-rule:evenodd;fill:rgb(13.699341%,12.199402%,12.5%);fill-opacity:1;" d="M 39.972656 62.359375 C 39.972656 62.398438 39.972656 62.4375 39.976563 62.476563 C 42.195313 62.597656 45.648438 60.714844 47.449219 62.457031 C 47.476563 61.96875 47.394531 61.695313 47.421875 61.210938 C 46.050781 60.460938 44.667969 60.703125 43.277344 61.007813 L 43.277344 59.304688 C 44.863281 58.976563 46.453125 58.773438 47.492188 59.777344 C 47.523438 59.292969 47.4375 59.015625 47.46875 58.53125 C 46.082031 57.777344 44.683594 58.03125 43.277344 58.339844 L 43.277344 57.171875 C 44.832031 56.855469 46.382813 56.675781 47.402344 57.664063 C 47.429688 57.175781 47.34375 56.902344 47.378906 56.417969 C 45.203125 55.234375 43.007813 56.523438 40.792969 56.632813 L 40.792969 56.625 L 40.132813 56.625 C 40.066406 56.621094 39.996094 56.613281 39.929688 56.605469 L 39.929688 57.203125 C 39.925781 57.359375 39.921875 57.515625 39.929688 57.671875 L 39.929688 62.359375 Z M 42.269531 61.226563 C 41.777344 61.324219 41.289063 61.40625 40.792969 61.425781 L 40.792969 60.171875 L 41.613281 60.171875 L 41.613281 58.621094 L 40.792969 58.621094 L 40.792969 57.652344 C 41.261719 57.597656 41.761719 57.496094 42.269531 57.386719 L 42.269531 61.226563 "/>
<path style=" stroke:none;fill-rule:evenodd;fill:rgb(13.699341%,12.199402%,12.5%);fill-opacity:1;" d="M 61.480469 61.398438 C 61.464844 61.757813 61.496094 62.117188 61.480469 62.476563 C 59.261719 62.597656 55.808594 60.714844 54.007813 62.457031 C 53.976563 61.96875 54.0625 61.695313 54.03125 61.210938 C 56.488281 59.871094 58.976563 61.695313 61.480469 61.398438 "/>
<path style=" stroke:none;fill-rule:evenodd;fill:rgb(13.699341%,12.199402%,12.5%);fill-opacity:1;" d="M 61.433594 58.71875 C 61.417969 59.082031 61.449219 59.441406 61.433594 59.800781 C 59.214844 59.921875 55.761719 58.035156 53.960938 59.777344 C 53.929688 59.292969 54.015625 59.015625 53.984375 58.53125 C 56.441406 57.191406 58.929688 59.019531 61.433594 58.71875 "/>
<path style=" stroke:none;fill-rule:evenodd;fill:rgb(13.699341%,12.199402%,12.5%);fill-opacity:1;" d="M 61.527344 56.605469 C 61.511719 56.964844 61.542969 57.328125 61.527344 57.6875 C 59.308594 57.808594 55.855469 55.921875 54.054688 57.664063 C 54.023438 57.175781 54.109375 56.902344 54.078125 56.417969 C 56.535156 55.078125 59.023438 56.90625 61.527344 56.605469 "/>
<path style=" stroke:none;fill-rule:evenodd;fill:rgb(13.699341%,12.199402%,12.5%);fill-opacity:1;" d="M 80.050781 8.203125 C 71.222656 5.632813 61.472656 4.089844 50.769531 7.34375 C 47.257813 8.25 44.574219 10.089844 42.726563 12.863281 C 42.875 14.382813 42.777344 15.8125 40.949219 16.605469 C 40.019531 16.738281 39.132813 16.753906 38.515625 15.949219 C 37.800781 14.964844 38.019531 14.652344 39.171875 15.015625 C 40.746094 15.964844 40.871094 15.46875 39.542969 13.519531 C 38.707031 12.574219 38.800781 12.042969 39.824219 11.929688 C 41.503906 12.464844 41.628906 12.121094 40.199219 10.898438 C 39.507813 10.035156 39.242188 9.152344 41.042969 8.1875 C 43.796875 7.429688 42.914063 6.949219 41.507813 6.503906 C 40.492188 6.257813 39.378906 6.144531 38.046875 6.316406 C 37.21875 6.328125 37.414063 5.625 37.082031 5.449219 C 35.898438 5.191406 34.554688 5.996094 33.371094 6.878906 C 31.78125 6.890625 30.191406 7.160156 28.601563 8 C 26.433594 7.640625 24.34375 7.566406 22.800781 9.496094 C 23.609375 9.8125 24.488281 9.988281 25.605469 9.683594 C 25.910156 10.289063 26.125 10.875 25.699219 11.273438 C 23.28125 11.894531 21.910156 12.066406 19.433594 11.835938 C 19.777344 11.273438 20.117188 10.710938 20.460938 10.152344 C 17.800781 10.496094 15.496094 9.769531 13.351563 8.5625 C 12.539063 8.414063 12.910156 8.996094 13.445313 9.683594 C 15.566406 11.292969 16.46875 13.183594 17.921875 14.828125 C 18.285156 14.433594 18.671875 13.777344 18.308594 12.863281 C 19.929688 13.199219 21.484375 13.339844 22.894531 13.050781 C 23.953125 12.863281 25.015625 12.675781 26.074219 12.488281 C 25.980469 13.582031 25.574219 14.359375 24.859375 14.828125 C 24.53125 15.015625 24.867188 15.550781 24.929688 15.738281 C 26.425781 15.800781 28.039063 15.515625 29.535156 15.578125 C 28.007813 16.007813 26.679688 16.71875 25.980469 18.289063 C 25.316406 18.40625 24.910156 18.777344 24.765625 19.410156 C 22.871094 18.964844 20.878906 18.308594 18.777344 17.449219 C 17.929688 16.933594 16.9375 17.277344 15.878906 18.007813 C 13.757813 19.351563 11.636719 20.238281 9.519531 19.503906 C 8.574219 19.472656 7.644531 19.703125 6.804688 21.75 C 6.449219 22.789063 6.550781 23.734375 7.648438 24.464844 C 7.6875 23.484375 8.03125 23.113281 8.488281 22.96875 C 8.324219 23.964844 8.730469 24.648438 9.703125 25.023438 C 9.734375 23.917969 10.054688 23.203125 11.015625 23.339844 C 11.210938 24.757813 12.027344 25.253906 13.257813 25.117188 C 12.878906 24.554688 12.558594 23.996094 12.699219 23.433594 C 13.835938 23.671875 14.515625 23.183594 15.128906 22.59375 C 16.089844 23.324219 17.21875 23.71875 18.589844 23.621094 C 19.222656 23.808594 19.441406 24.152344 19.246094 24.652344 C 20.449219 24.453125 20.667969 23.734375 19.902344 22.5 C 19.152344 22.0625 18.40625 21.625 17.65625 21.191406 C 17.066406 20.496094 17.410156 20.214844 18.683594 20.347656 C 19.566406 20.773438 20.265625 21.386719 20.835938 22.125 C 21.234375 23.464844 22.179688 24.429688 23.921875 24.835938 C 24.050781 25.667969 24.484375 26.292969 25.234375 26.707031 C 23.921875 27.738281 22.613281 28.765625 21.304688 29.796875 C 20.261719 30.515625 19.214844 31.070313 18.125 30.449219 C 16.90625 29.492188 15.324219 29.617188 13.539063 30.355469 C 12.832031 30.828125 12.332031 31.59375 12.136719 32.789063 C 11.832031 33.679688 12.089844 34.359375 12.605469 34.941406 C 12.972656 34.355469 13.316406 33.949219 13.632813 33.722656 C 13.644531 34.617188 13.796875 35.46875 14.476563 36.15625 C 14.6875 35.457031 14.949219 34.972656 15.316406 34.941406 C 16.800781 35.117188 18.207031 34.992188 19.433594 34.191406 C 20.886719 33.734375 22.324219 32.855469 23.828125 34.097656 C 25.125 34.496094 26.296875 34.34375 27.382813 33.816406 C 28.492188 33.363281 29.046875 34.1875 29.628906 34.941406 C 28.984375 32.546875 29.273438 32.546875 26.824219 32.226563 C 26.511719 32.101563 26.199219 31.976563 25.886719 31.851563 C 25.371094 31.605469 25.027344 31.324219 25.886719 30.824219 C 26.542969 30.417969 27.199219 30.015625 27.851563 29.609375 C 28.316406 29.339844 28.714844 28.769531 29.441406 29.703125 C 30.539063 30.429688 31.558594 31.253906 33.933594 30.449219 C 34.667969 30.199219 35.164063 30.351563 35.523438 30.730469 C 36.984375 31.160156 38.394531 31.085938 39.730469 30.261719 C 41.261719 30.734375 42.539063 30.515625 43.566406 29.609375 C 45.308594 29.746094 46.941406 29.5625 48.058594 27.832031 C 49.0625 28.007813 49.796875 27.457031 50.488281 26.800781 C 51.773438 26.667969 53.066406 26.613281 54.136719 25.210938 C 55.292969 24.511719 56.160156 24.199219 56.382813 24.742188 C 55.792969 26.050781 54.210938 27.628906 57.597656 27.832031 C 58.480469 28.050781 58.480469 28.269531 57.597656 28.484375 C 56.660156 28.992188 55.722656 29.515625 54.886719 30.542969 C 54.074219 31.214844 53.265625 31.105469 52.453125 30.636719 C 51.492188 29.941406 50.328125 29.652344 48.429688 30.824219 C 47.976563 31.179688 47.347656 31.589844 46.375 31.945313 C 45.648438 32.59375 45.492188 33.339844 45.90625 34.191406 C 46.480469 33.714844 47.023438 33.402344 47.496094 33.445313 C 47.214844 34.34375 47.429688 35.171875 47.871094 35.96875 C 48.269531 35.226563 48.875 34.664063 50.210938 34.753906 C 51.082031 34.441406 51.957031 34.128906 52.828125 33.816406 C 54.441406 33.535156 56.015625 33.359375 57.320313 33.910156 C 58.449219 34.007813 58.6875 34.90625 61.246094 33.722656 C 62.238281 33.679688 62.382813 34.246094 62.742188 34.660156 C 63.289063 33.136719 62.167969 32.765625 60.886719 32.378906 C 60.492188 32.257813 60.171875 31.925781 59.808594 32.042969 C 58.214844 32.558594 58.714844 31.136719 58.910156 31.011719 C 60.9375 29.695313 63.117188 30.671875 63.117188 28.109375 C 64.304688 27.988281 65.453125 27.761719 66.484375 27.175781 C 69.050781 29.066406 72.140625 29.503906 75.746094 28.484375 C 77.945313 28 84.15625 28.136719 82.667969 32.039063 C 81.359375 31.664063 80.050781 31.292969 78.738281 30.917969 C 76.484375 31.753906 74.070313 32.242188 74.71875 34.847656 C 75.308594 34.566406 75.765625 34.265625 76.359375 33.984375 C 76.203125 34.703125 76.183594 35.4375 76.027344 36.15625 C 76.601563 35.339844 77.367188 34.730469 78.980469 34.640625 C 78.949219 35.109375 79.050781 35.59375 79.019531 36.0625 C 80.171875 36.058594 81.328125 35.921875 82.480469 35.5 C 83.648438 34.316406 85.175781 33.519531 88 34.097656 C 89.753906 34.617188 90.941406 34.460938 91.554688 33.628906 C 92.84375 33.476563 93.421875 34.03125 93.972656 34.511719 C 93.941406 33.457031 94.859375 31.921875 91.835938 32.132813 C 91.585938 31.882813 91.335938 31.636719 91.085938 31.386719 C 90.089844 31.355469 89.09375 31.324219 88.09375 31.292969 C 82.585938 30.503906 86.96875 25.226563 84.632813 23.246094 C 78.488281 23.785156 78.851563 23.203125 78.832031 22.6875 C 82.746094 22.460938 89.507813 22.949219 89.589844 17.167969 C 90.433594 17.636719 91.117188 18.414063 91.648438 19.503906 C 92.074219 19.585938 92.292969 19.148438 92.304688 18.195313 C 91.703125 14.980469 90.535156 11.964844 87.34375 9.683594 C 86.683594 8.996094 86.25 8.953125 86.316406 10.339844 C 86.34375 12.644531 86.328125 14.953125 85.101563 17.261719 C 84.769531 18.253906 85.078125 18.25 85.472656 18.101563 C 86.171875 17.800781 86.753906 17.386719 87.34375 16.980469 C 87.71875 16.710938 87.78125 16.960938 87.53125 17.726563 C 85.472656 21.128906 79.382813 20.679688 76.214844 19.503906 C 75.945313 18.851563 76.386719 18.195313 77.148438 17.539063 C 77.433594 16.867188 76.535156 16.832031 75.464844 16.886719 C 73.417969 17.683594 70.972656 18.902344 70.882813 17.636719 C 71.503906 17.074219 72.128906 16.511719 72.753906 15.949219 C 72.824219 15.304688 71.96875 15.371094 70.695313 15.765625 C 69.417969 16.136719 67.867188 16.785156 66.589844 17.15625 C 66.773438 16.660156 67.234375 15.890625 67.421875 15.390625 C 67.574219 14.777344 66.949219 14.683594 65.550781 15.109375 C 64.3125 15.695313 63.007813 16.238281 61.246094 16.511719 C 60.597656 16.8125 59.523438 16.898438 58.253906 16.886719 C 56.925781 16.648438 56.898438 16.304688 58.160156 15.855469 C 58.96875 15.828125 59.78125 15.792969 60.59375 15.765625 C 61.632813 13.527344 63.710938 12.332031 68.074219 13.425781 C 66.378906 9.027344 72.175781 8.230469 80.050781 8.203125 Z M 37.0625 14.382813 L 37.011719 13.5625 L 38.023438 13.484375 C 37.824219 13.105469 37.710938 12.691406 37.769531 12.265625 L 37.628906 12.25 L 37.6875 11.015625 L 38.589844 10.53125 C 38.546875 10.410156 38.515625 10.289063 38.492188 10.171875 L 38.015625 9.707031 L 38.03125 8.914063 L 38.761719 8.605469 C 39 8.195313 39.371094 7.816406 39.855469 7.480469 C 39.3125 7.441406 38.765625 7.457031 38.203125 7.53125 L 38.132813 7.539063 L 38.0625 7.539063 C 37.210938 7.550781 36.742188 7.230469 36.386719 6.644531 C 35.605469 6.769531 34.601563 7.484375 34.101563 7.859375 L 33.78125 8.097656 L 33.378906 8.101563 C 31.882813 8.113281 30.46875 7.914063 29.132813 8.621094 L 28.769531 8.8125 L 28.363281 8.746094 C 27.765625 8.644531 25.921875 8.601563 25.351563 8.59375 L 26.703125 9.136719 C 26.867188 9.46875 27.007813 9.8125 27.085938 10.15625 C 27.160156 10.121094 27.027344 10.652344 27.109375 10.625 L 27.382813 10.539063 L 27.664063 10.582031 C 28.914063 10.84375 30.40625 11.242188 31.445313 10.695313 L 31.503906 10.832031 L 33.039063 9.726563 C 33.308594 9.191406 33.089844 9.019531 32.386719 9.203125 C 32.011719 9.488281 31.640625 9.769531 31.265625 10.054688 C 30.234375 10.1875 29.660156 10.066406 29.550781 9.6875 C 29.910156 9.121094 30.710938 8.789063 31.941406 8.683594 C 32.988281 8.734375 34.035156 8.785156 35.085938 8.839844 C 35.039063 8.988281 34.992188 9.132813 34.949219 9.28125 C 34.007813 9.84375 32.832031 10.140625 32.675781 11.59375 C 32.488281 12.507813 31.992188 13.164063 31.191406 13.5625 C 31.136719 13.585938 31.09375 13.605469 31.050781 13.621094 C 30.574219 13.890625 29.925781 13.976563 29.207031 13.859375 C 29.03125 14.058594 28.808594 14.222656 28.570313 14.355469 C 28.90625 14.34375 29.246094 14.339844 29.585938 14.355469 C 30.890625 14.214844 31.875 14.171875 32.496094 14.230469 C 33.816406 13.816406 34.734375 12.863281 35.101563 11.164063 C 35.199219 9.539063 35.671875 9.894531 35.960938 10.929688 C 36.15625 11.839844 36.195313 12.75 35.882813 13.660156 C 35.308594 14.59375 34.738281 15.53125 34.167969 16.464844 C 32.640625 18.113281 32.144531 19.066406 32.375 21.296875 C 32.828125 21.933594 33.191406 21.753906 33.542969 21.453125 C 32.699219 18.695313 35.292969 17.140625 37.550781 16.703125 L 37.546875 16.695313 L 37.523438 16.667969 C 37.054688 16.023438 36.75 15.046875 37.0625 14.382813 Z M 45.734375 18.722656 C 46.378906 18.984375 47.425781 19.515625 47.792969 20.308594 C 47.757813 20.410156 47.722656 20.519531 47.691406 20.628906 C 46.28125 20.703125 45.015625 21.019531 43.929688 21.660156 C 43.777344 21.394531 43.578125 20.984375 43.550781 20.570313 L 43.636719 20.519531 Z M 48.464844 18.96875 C 48.117188 18.421875 47.605469 17.777344 47.042969 17.582031 L 47.925781 16.699219 C 49.089844 15.625 50.140625 16.011719 51.199219 16.308594 C 52.019531 16.472656 52.546875 16.722656 52.785156 17.058594 C 51 17.121094 49.453125 17.574219 48.464844 18.96875 Z M 42.484375 21.1875 L 43.054688 22.28125 C 42.800781 22.496094 42.558594 22.738281 42.332031 23 C 41.703125 22.390625 40.953125 22.125 40.136719 22.03125 C 41.011719 21.882813 41.769531 21.566406 42.484375 21.1875 Z M 37.699219 22.84375 C 39.632813 22.640625 40.988281 23.054688 42.40625 24.125 C 43.828125 22.277344 46.324219 21.742188 48.578125 21.964844 C 49.359375 18.589844 51.867188 17.933594 55.34375 18.804688 L 55.347656 18.785156 L 55.410156 18.804688 C 55.402344 18.753906 55.394531 18.699219 55.386719 18.648438 C 55.601563 17.90625 55.9375 17.523438 56.339844 17.335938 C 56.738281 17.792969 57.433594 17.980469 58.035156 18.089844 L 58.140625 18.109375 L 58.242188 18.109375 C 59.269531 18.117188 60.601563 18.089844 61.589844 17.695313 C 63.019531 17.460938 64.261719 17.03125 65.554688 16.453125 C 65.515625 16.542969 65.476563 16.636719 65.441406 16.726563 L 64.582031 19.019531 L 66.929688 18.332031 C 67.847656 18.066406 68.738281 17.71875 69.636719 17.402344 L 69.660156 17.722656 C 69.695313 18.175781 69.867188 18.59375 70.203125 18.910156 C 71.398438 20.046875 73.75 18.902344 75.027344 18.382813 C 74.4375 23.050781 91.582031 21.488281 87.941406 15.917969 C 87.539063 15.675781 87.414063 15.605469 87.019531 15.769531 C 87.425781 14.351563 87.53125 12.921875 87.542969 11.402344 C 89.105469 12.789063 90.023438 14.4375 90.605469 16.359375 C 90.472656 16.265625 90.253906 16.410156 90.109375 16.332031 C 89.425781 16.144531 88.847656 15.777344 88.316406 15.332031 C 88.570313 16.453125 89.136719 16.902344 89.070313 17.65625 C 88.808594 20.613281 85.511719 21.546875 79.285156 22.003906 C 78.738281 22.246094 76.914063 21.710938 77.648438 22.730469 C 77.652344 22.878906 77.609375 23.003906 77.636719 23.15625 C 77.820313 24.222656 78.792969 24.550781 79.734375 24.640625 C 81.054688 24.769531 82.664063 24.648438 84.070313 24.527344 C 85.25 26.953125 81.9375 30.417969 87.921875 32.503906 L 87.988281 32.511719 L 88.054688 32.515625 C 88.890625 32.542969 89.726563 32.566406 90.566406 32.59375 C 90.609375 32.640625 90.65625 32.683594 90.699219 32.730469 L 90.574219 32.902344 C 90.1875 33.421875 88.820313 33.0625 88.347656 32.925781 L 88.296875 32.910156 L 88.246094 32.898438 C 86.496094 32.539063 84.5625 32.78125 83.148438 33.449219 C 82.445313 33.84375 81.710938 34.753906 80.894531 34.855469 C 80.894531 34.847656 80.757813 34.824219 80.757813 34.816406 L 80.984375 33.976563 L 78.851563 34.207031 C 78.433594 34.230469 77.875 34.210938 77.488281 34.300781 C 76.929688 33.742188 77.351563 33.46875 78.75 33.476563 C 78.738281 33.28125 78.722656 33.082031 78.710938 32.886719 C 77.289063 33.109375 76.742188 32.972656 77.066406 32.476563 C 77.113281 32.128906 78.28125 32.050781 78.640625 32.183594 C 80.070313 32.589844 81.410156 33.488281 82.8125 32.910156 C 84.273438 32.058594 83.933594 30.488281 83.164063 29.222656 C 82.273438 27.75 80.835938 27.292969 79.234375 27.128906 C 78.058594 27.011719 76.640625 27.035156 75.484375 27.289063 L 75.449219 27.296875 L 75.414063 27.308594 C 72.53125 28.121094 69.6875 28.015625 67.210938 26.191406 L 66.964844 26.007813 L 64.800781 23.558594 C 63.785156 22.382813 62.597656 21.460938 61.371094 20.597656 C 59.640625 19.507813 57.566406 19.378906 55.214844 20.050781 C 52.824219 21.011719 50.433594 21.972656 48.042969 22.933594 C 46.066406 23.738281 43.988281 24.390625 41.804688 24.882813 C 39.878906 25.28125 38.195313 24.953125 36.582031 24.417969 C 35.984375 23.949219 36.113281 23.480469 36.347656 23.011719 C 36.789063 22.988281 37.230469 22.960938 37.675781 22.933594 Z M 56.433594 15.4375 C 55.785156 15.429688 55.070313 15.785156 54.304688 16.429688 C 52.941406 14.984375 50.464844 14.832031 48.199219 15.0625 C 48.121094 14.90625 48.546875 14.671875 48.46875 14.515625 C 49.761719 13.324219 50.503906 13.511719 51.355469 13.425781 C 54.4375 13.148438 56.308594 13.796875 57.921875 14.644531 L 57.753906 14.703125 C 57.289063 14.867188 56.78125 15.089844 56.433594 15.4375 Z M 37.273438 21.917969 C 40.921875 21.558594 43.132813 19.5 45.039063 17.089844 C 49.359375 8.683594 58.472656 7.140625 67.101563 7.5 L 70.496094 7.902344 C 70.960938 7.757813 71.449219 7.636719 71.949219 7.535156 C 65.050781 6.3125 58.242188 6.351563 51.125 8.515625 L 51.101563 8.523438 L 51.074219 8.53125 C 43.976563 10.355469 45.625 15.910156 41.433594 17.726563 L 41.285156 17.792969 L 41.121094 17.816406 C 40.214844 17.945313 39.355469 17.9375 38.609375 17.578125 C 36.097656 17.96875 32.269531 21.460938 36.035156 21.765625 Z M 67.769531 9.3125 C 66.910156 8.511719 64.722656 8.261719 61.878906 8.28125 C 60.449219 8.292969 58.234375 8.699219 56.851563 9.019531 C 55.902344 9.433594 56.71875 9.5625 57.667969 9.410156 C 58.921875 9.078125 65.519531 10.984375 66.558594 11.878906 C 66.574219 11.398438 66.675781 10.921875 66.894531 10.460938 C 67.097656 10.027344 67.398438 9.644531 67.769531 9.3125 Z M 63.523438 11.957031 C 62.441406 10.878906 58.546875 9.933594 54.394531 10.695313 C 53.605469 10.882813 52.824219 10.988281 51.976563 11.554688 C 51.058594 11.855469 51.007813 12.167969 51.460938 12.257813 C 54.855469 12.167969 58.277344 12.601563 60.222656 14.007813 C 61.097656 12.855469 62.238281 12.226563 63.523438 11.957031 Z M 59.894531 14.480469 L 59.707031 14.574219 L 59.84375 14.566406 Z M 57.207031 23.269531 C 58.523438 23.230469 59.523438 22.644531 60.289063 21.644531 C 58.585938 20.972656 56.648438 20.992188 54.511719 21.609375 C 48.753906 23.875 42.453125 27.527344 36.082031 25.679688 C 35.730469 25.796875 35.382813 25.910156 35.03125 26.027344 C 33.792969 27.519531 32.09375 28.238281 30.296875 28.796875 C 31.472656 29.570313 32.007813 29.8125 33.539063 29.289063 C 34.171875 29.078125 34.800781 29.039063 35.371094 29.222656 C 36.453125 28.578125 37.429688 27.820313 38.179688 26.804688 C 38.539063 26.304688 38.640625 26.394531 38.488281 27.078125 C 37.875 28.164063 37.101563 28.988281 36.230469 29.652344 C 37.230469 29.878906 38.171875 29.785156 39.089844 29.21875 L 39.5625 28.929688 L 39.597656 28.941406 C 40.355469 28.441406 41.027344 27.859375 41.515625 27.089844 C 41.765625 26.683594 41.855469 26.757813 41.785156 27.308594 C 41.429688 28.078125 40.957031 28.679688 40.410156 29.179688 C 41.261719 29.382813 42.058594 29.308594 42.757813 28.691406 L 42.910156 28.554688 L 42.878906 28.550781 L 42.992188 28.484375 L 43.148438 28.347656 L 43.214844 28.351563 C 44.140625 27.792969 44.976563 27.144531 45.554688 26.234375 C 45.804688 25.832031 45.894531 25.90625 45.828125 26.453125 C 45.445313 27.273438 44.933594 27.90625 44.339844 28.421875 C 45.425781 28.4375 46.355469 28.214844 47.027344 27.167969 L 47.46875 26.484375 L 47.824219 26.546875 C 48.328125 26.121094 48.757813 25.652344 49.042969 25.085938 C 49.203125 24.761719 49.285156 24.800781 49.289063 25.210938 C 49.097656 25.765625 48.8125 26.230469 48.464844 26.636719 C 48.925781 26.605469 49.335938 26.210938 49.648438 25.910156 L 49.949219 25.628906 L 50.363281 25.585938 L 50.367188 25.585938 C 50.457031 24.863281 50.671875 24.195313 51.382813 23.738281 C 51.0625 24.304688 50.878906 24.894531 50.949219 25.523438 C 51.816406 25.433594 52.542969 25.28125 53.164063 24.46875 L 53.304688 24.285156 L 53.503906 24.164063 C 53.710938 24.039063 53.941406 23.902344 54.1875 23.773438 C 54.332031 23.136719 54.648438 22.554688 55.5 22.144531 C 55.183594 22.566406 54.964844 22.996094 54.910156 23.449219 C 55.460938 23.25 56.035156 23.160156 56.550781 23.347656 C 56.726563 22.816406 57.058594 22.339844 57.789063 21.988281 C 57.480469 22.402344 57.265625 22.828125 57.207031 23.269531 Z M 60.984375 21.96875 C 60.296875 23.199219 59.179688 24.199219 57.625 24.964844 L 57.5 25.246094 C 57.386719 25.492188 57.019531 26.105469 56.832031 26.503906 C 57.121094 26.566406 57.507813 26.597656 57.671875 26.609375 L 57.785156 26.617188 L 57.894531 26.644531 C 59.992188 27.164063 61.757813 27.289063 59.765625 27.882813 C 58.90625 28.347656 56.472656 30.53125 55.835938 31.316406 L 55.761719 31.410156 L 55.667969 31.484375 C 54.53125 32.03125 53.191406 31.945313 51.84375 31.699219 L 51.734375 31.628906 C 50.808594 30.957031 48.457031 31.972656 47.390625 32.566406 L 49.820313 32.667969 L 48.695313 33.707031 C 48.964844 34.636719 49.558594 34.128906 50.058594 33.988281 C 50.859375 33.703125 51.617188 32.949219 52.417969 32.664063 L 52.515625 32.628906 L 52.617188 32.613281 C 54.257813 32.558594 56.035156 32.199219 57.625 32.714844 C 58.757813 33.886719 60.40625 33.46875 59.882813 32.832031 C 58.449219 32.839844 56.578125 31.367188 58.242188 29.984375 C 59.023438 29.480469 59.808594 29.238281 60.699219 29.035156 C 60.925781 28.980469 61.609375 28.847656 61.78125 28.699219 C 61.882813 28.617188 61.894531 28.21875 61.894531 28.109375 L 61.894531 27.007813 L 62.992188 26.894531 C 63.839844 26.804688 64.71875 26.660156 65.503906 26.304688 C 64.453125 25 63.296875 23.695313 61.683594 22.390625 C 61.457031 22.234375 61.222656 22.09375 60.984375 21.96875 Z M 26.351563 19.46875 C 27.558594 20.59375 28.925781 21.464844 30.761719 21.601563 L 29.058594 23.304688 C 27.664063 23.609375 26.367188 21.835938 25.714844 20.746094 L 25.957031 19.6875 C 25.992188 19.53125 26.027344 19.523438 26.191406 19.496094 Z M 29.996094 23.660156 L 31.613281 22.804688 C 32.390625 22.460938 34.199219 22.679688 34.449219 23.621094 C 34.632813 24.300781 33.554688 25.015625 33.519531 25.5625 C 33.488281 26 30.449219 27.558594 29.15625 28.019531 C 28.601563 27.867188 28.003906 28.011719 27.375 28.457031 C 27.332031 28.488281 27.28125 28.523438 27.234375 28.550781 L 27.207031 28.566406 C 26.558594 28.96875 25.90625 29.371094 25.257813 29.773438 C 23.746094 30.664063 23.792969 32.203125 25.355469 32.957031 L 25.433594 32.988281 C 25.507813 33.019531 25.578125 33.046875 25.652344 33.078125 C 25.242188 33.125 24.828125 33.09375 24.394531 32.984375 C 22.539063 31.605469 21.007813 32.414063 19.066406 33.023438 L 18.90625 33.074219 L 18.765625 33.164063 C 17.777344 33.808594 16.601563 33.863281 15.464844 33.726563 C 15.421875 33.71875 15.378906 33.714844 15.339844 33.710938 C 15.296875 33.714844 15.253906 33.71875 15.214844 33.71875 C 15.085938 33.730469 14.96875 33.753906 14.859375 33.789063 C 14.859375 33.761719 14.859375 33.738281 14.855469 33.710938 C 14.820313 32.707031 15.964844 32.523438 17.28125 32.457031 C 16.203125 32.160156 15.027344 32.054688 13.636719 32.382813 C 13.761719 32.042969 13.835938 31.664063 14.132813 31.4375 C 15.132813 31.035156 16.445313 30.683594 17.367188 31.410156 C 17.390625 31.429688 17.414063 31.449219 17.441406 31.46875 C 17.464844 31.484375 17.492188 31.5 17.519531 31.515625 C 19.125 32.425781 20.621094 31.757813 22 30.800781 L 22.03125 30.78125 L 22.058594 30.757813 C 24.039063 29.203125 25.949219 27.632813 27.746094 25.875 L 27.683594 25.867188 L 29.609375 24.085938 C 29.609375 24.085938 29.796875 23.894531 29.996094 23.660156 Z M 32.824219 15.152344 C 33.046875 15.15625 33.289063 15.140625 33.539063 15.101563 C 33.34375 15.84375 32.179688 16.738281 31.789063 17.441406 C 31.632813 17.671875 31.59375 17.945313 31.4375 18.179688 C 30.71875 18.007813 30.183594 17.472656 29.710938 16.800781 L 29.867188 16.753906 C 31.34375 16.078125 32.3125 15.546875 32.824219 15.152344 Z M 28.410156 17.339844 C 29.085938 18.121094 29.886719 18.714844 30.96875 18.882813 C 30.867188 19.503906 30.761719 20.128906 30.65625 20.753906 C 29.222656 20.65625 28.085938 19.894531 26.996094 19.019531 L 27.097656 18.785156 C 27.398438 18.117188 27.855469 17.664063 28.410156 17.339844 Z M 23.816406 23.539063 C 24.152344 23.054688 24.828125 22.15625 24.828125 22.15625 C 24.828125 22.15625 24.867188 21.261719 24.816406 20.683594 L 24.484375 20.601563 C 22.378906 20.105469 20.316406 19.402344 18.3125 18.582031 L 18.226563 18.542969 L 18.148438 18.496094 C 17.722656 18.238281 16.898438 18.792969 16.574219 19.015625 L 16.554688 19.03125 L 16.53125 19.042969 C 14.359375 20.417969 11.902344 21.519531 9.328125 20.730469 C 8.671875 20.769531 8.367188 21.230469 8.109375 21.800781 L 10.023438 21.175781 L 9.839844 22.285156 C 10.207031 22.117188 10.652344 22.050781 11.1875 22.128906 L 11.738281 22.207031 L 11.792969 21.992188 L 12.949219 22.234375 C 13.558594 22.363281 13.863281 22.113281 14.28125 21.710938 L 15.035156 20.984375 L 15.871094 21.617188 C 16.234375 21.894531 16.613281 22.097656 17.011719 22.230469 L 16.859375 22.140625 L 16.722656 21.980469 C 16.265625 21.441406 15.96875 20.753906 16.277344 20.054688 C 16.722656 19.058594 17.890625 19.03125 18.8125 19.128906 L 19.027344 19.152344 L 19.21875 19.246094 C 20.253906 19.746094 21.105469 20.472656 21.804688 21.375 L 21.945313 21.554688 L 22.011719 21.777344 C 22.296875 22.742188 22.925781 23.253906 23.816406 23.539063 Z M 26.089844 25.671875 L 27.933594 24.355469 C 27.933594 24.355469 28.453125 24.105469 27.796875 23.621094 C 27.140625 23.140625 25.964844 23.46875 25.964844 22.792969 C 25.964844 22.296875 25.265625 23.265625 24.898438 23.808594 L 25.007813 23.835938 L 25.132813 24.652344 C 25.203125 25.117188 25.421875 25.410156 25.828125 25.640625 Z M 27.691406 11.230469 C 27.371094 11.335938 27.355469 11.542969 27.65625 11.851563 C 28.199219 12.113281 28.742188 12.371094 29.285156 12.628906 C 30.574219 12.890625 30.792969 12.4375 30.527344 11.660156 C 29.582031 11.515625 28.636719 11.375 27.691406 11.230469 Z M 27.070313 12.515625 C 27.058594 12.683594 27.039063 12.933594 27.03125 13.019531 C 27.027344 13.101563 27.5625 13.507813 27.964844 13.289063 C 29.171875 12.640625 27.167969 12.515625 27.070313 12.515625 Z M 26.828125 14.375 C 26.808594 14.40625 26.792969 14.441406 26.777344 14.46875 C 26.863281 14.464844 26.945313 14.460938 27.03125 14.453125 C 26.960938 14.429688 26.894531 14.40625 26.828125 14.375 Z M 18.152344 11.582031 L 18.25 11.421875 C 17.707031 11.378906 17.167969 11.296875 16.640625 11.175781 C 16.671875 11.214844 16.699219 11.25 16.726563 11.285156 Z M 37.011719 20.65625 C 38.136719 19.691406 39.449219 19.332031 40.828125 19.191406 C 41.445313 18.984375 42.746094 19.054688 40.867188 18.574219 C 37.511719 17.714844 34.421875 21.496094 37.011719 20.65625 Z M 64.863281 20.308594 C 63.019531 20.191406 62.886719 20.382813 64.460938 20.886719 C 66.800781 21.765625 68.644531 22.996094 70.261719 24.394531 C 72.066406 25.546875 74.351563 25.367188 76.625 25.484375 C 77.621094 25.417969 77.582031 25.199219 76.507813 24.824219 C 72.753906 24.351563 70.921875 23.242188 67.925781 21.40625 C 67.023438 20.921875 66.078125 20.476563 64.863281 20.308594 Z M 70.292969 20.667969 C 72.21875 21.195313 73.886719 21.96875 75.1875 23.117188 C 76.210938 23.542969 76.351563 23.347656 75.613281 22.53125 C 73.753906 20.828125 73.09375 20.515625 70.566406 20.085938 C 69.59375 20.074219 69.503906 20.269531 70.292969 20.667969 "/>
<path style=" stroke:none;fill-rule:evenodd;fill:rgb(92.89856%,10.998535%,14.099121%);fill-opacity:1;" d="M 37.0625 14.382813 L 37.011719 13.5625 L 38.023438 13.484375 C 37.824219 13.105469 37.710938 12.691406 37.769531 12.265625 L 37.628906 12.25 L 37.6875 11.015625 L 38.589844 10.53125 C 38.546875 10.410156 38.515625 10.289063 38.492188 10.171875 L 38.015625 9.707031 L 38.03125 8.914063 L 38.761719 8.605469 C 39 8.195313 39.371094 7.816406 39.855469 7.480469 C 39.3125 7.441406 38.765625 7.457031 38.203125 7.53125 L 38.132813 7.539063 L 38.0625 7.539063 C 37.210938 7.550781 36.742188 7.230469 36.386719 6.644531 C 35.605469 6.769531 34.601563 7.484375 34.101563 7.859375 L 33.78125 8.097656 L 33.378906 8.101563 C 31.882813 8.113281 30.46875 7.914063 29.132813 8.621094 L 28.769531 8.8125 L 28.363281 8.746094 C 27.765625 8.644531 25.921875 8.601563 25.351563 8.59375 L 26.703125 9.136719 C 26.867188 9.46875 27.007813 9.8125 27.085938 10.15625 C 27.160156 10.121094 27.027344 10.652344 27.109375 10.625 L 27.382813 10.539063 L 27.664063 10.582031 C 28.914063 10.84375 30.40625 11.242188 31.445313 10.695313 L 31.503906 10.832031 L 33.039063 9.726563 C 33.308594 9.191406 33.089844 9.019531 32.386719 9.203125 C 32.011719 9.488281 31.640625 9.769531 31.265625 10.054688 C 30.234375 10.1875 29.660156 10.066406 29.550781 9.6875 C 29.910156 9.121094 30.710938 8.789063 31.941406 8.683594 C 32.988281 8.734375 34.035156 8.785156 35.085938 8.839844 C 35.039063 8.988281 34.992188 9.132813 34.949219 9.28125 C 34.007813 9.84375 32.832031 10.140625 32.675781 11.59375 C 32.488281 12.507813 31.992188 13.164063 31.191406 13.5625 C 31.136719 13.585938 31.09375 13.605469 31.050781 13.621094 C 30.574219 13.890625 29.925781 13.976563 29.207031 13.859375 C 29.03125 14.058594 28.808594 14.222656 28.570313 14.355469 C 28.90625 14.34375 29.246094 14.339844 29.585938 14.355469 C 30.890625 14.214844 31.875 14.171875 32.496094 14.230469 C 33.816406 13.816406 34.734375 12.863281 35.101563 11.164063 C 35.199219 9.539063 35.671875 9.894531 35.960938 10.929688 C 36.15625 11.839844 36.195313 12.75 35.882813 13.660156 C 35.308594 14.59375 34.738281 15.53125 34.167969 16.464844 C 32.640625 18.113281 32.144531 19.066406 32.375 21.296875 C 32.828125 21.933594 33.191406 21.753906 33.542969 21.453125 C 32.699219 18.695313 35.292969 17.140625 37.550781 16.703125 L 37.546875 16.695313 L 37.523438 16.667969 C 37.054688 16.023438 36.75 15.046875 37.0625 14.382813 "/>
<path style=" stroke:none;fill-rule:evenodd;fill:rgb(92.89856%,10.998535%,14.099121%);fill-opacity:1;" d="M 45.734375 18.722656 C 46.378906 18.984375 47.425781 19.515625 47.792969 20.308594 C 47.757813 20.410156 47.722656 20.519531 47.691406 20.628906 C 46.28125 20.703125 45.015625 21.019531 43.929688 21.660156 C 43.777344 21.394531 43.578125 20.984375 43.550781 20.570313 L 43.636719 20.519531 L 45.734375 18.722656 "/>
<path style=" stroke:none;fill-rule:evenodd;fill:rgb(92.89856%,10.998535%,14.099121%);fill-opacity:1;" d="M 48.464844 18.96875 C 48.117188 18.421875 47.605469 17.777344 47.042969 17.582031 L 47.925781 16.699219 C 49.089844 15.625 50.140625 16.011719 51.199219 16.308594 C 52.019531 16.472656 52.546875 16.722656 52.785156 17.058594 C 51 17.121094 49.453125 17.574219 48.464844 18.96875 "/>
<path style=" stroke:none;fill-rule:evenodd;fill:rgb(92.89856%,10.998535%,14.099121%);fill-opacity:1;" d="M 42.484375 21.1875 L 43.054688 22.28125 C 42.800781 22.496094 42.558594 22.738281 42.332031 23 C 41.703125 22.390625 40.953125 22.125 40.136719 22.03125 C 41.011719 21.882813 41.769531 21.566406 42.484375 21.1875 "/>
<path style=" stroke:none;fill-rule:evenodd;fill:rgb(92.89856%,10.998535%,14.099121%);fill-opacity:1;" d="M 37.699219 22.84375 C 39.632813 22.640625 40.988281 23.054688 42.40625 24.125 C 43.828125 22.277344 46.324219 21.742188 48.578125 21.964844 C 49.359375 18.589844 51.867188 17.933594 55.34375 18.804688 L 55.347656 18.785156 L 55.410156 18.804688 C 55.402344 18.753906 55.394531 18.699219 55.386719 18.648438 C 55.601563 17.90625 55.9375 17.523438 56.339844 17.335938 C 56.738281 17.792969 57.433594 17.980469 58.035156 18.089844 L 58.140625 18.109375 L 58.242188 18.109375 C 59.269531 18.117188 60.601563 18.089844 61.589844 17.695313 C 63.019531 17.460938 64.261719 17.03125 65.554688 16.453125 C 65.515625 16.542969 65.476563 16.636719 65.441406 16.726563 L 64.582031 19.019531 L 66.929688 18.332031 C 67.847656 18.066406 68.738281 17.71875 69.636719 17.402344 L 69.660156 17.722656 C 69.695313 18.175781 69.867188 18.59375 70.203125 18.910156 C 71.398438 20.046875 73.75 18.902344 75.027344 18.382813 C 74.4375 23.050781 91.582031 21.488281 87.941406 15.917969 C 87.539063 15.675781 87.414063 15.605469 87.019531 15.769531 C 87.425781 14.351563 87.53125 12.921875 87.542969 11.402344 C 89.105469 12.789063 90.023438 14.4375 90.605469 16.359375 C 90.472656 16.265625 90.253906 16.410156 90.109375 16.332031 C 89.425781 16.144531 88.847656 15.777344 88.316406 15.332031 C 88.570313 16.453125 89.136719 16.902344 89.070313 17.65625 C 88.808594 20.613281 85.511719 21.546875 79.285156 22.003906 C 78.738281 22.246094 76.914063 21.710938 77.648438 22.730469 C 77.652344 22.878906 77.609375 23.003906 77.636719 23.15625 C 77.820313 24.222656 78.792969 24.550781 79.734375 24.640625 C 81.054688 24.769531 82.664063 24.648438 84.070313 24.527344 C 85.25 26.953125 81.9375 30.417969 87.921875 32.503906 L 87.988281 32.511719 L 88.054688 32.515625 C 88.890625 32.542969 89.726563 32.566406 90.566406 32.59375 C 90.609375 32.640625 90.65625 32.683594 90.699219 32.730469 L 90.574219 32.902344 C 90.1875 33.421875 88.820313 33.0625 88.347656 32.925781 L 88.296875 32.910156 L 88.246094 32.898438 C 86.496094 32.539063 84.5625 32.78125 83.148438 33.449219 C 82.445313 33.84375 81.710938 34.753906 80.894531 34.855469 C 80.894531 34.847656 80.757813 34.824219 80.757813 34.816406 L 80.984375 33.976563 L 78.851563 34.207031 C 78.433594 34.230469 77.875 34.210938 77.488281 34.300781 C 76.929688 33.742188 77.351563 33.46875 78.75 33.476563 C 78.738281 33.28125 78.722656 33.082031 78.710938 32.886719 C 77.289063 33.109375 76.742188 32.972656 77.066406 32.476563 C 77.113281 32.128906 78.28125 32.050781 78.640625 32.183594 C 80.070313 32.589844 81.410156 33.488281 82.8125 32.910156 C 84.273438 32.058594 83.933594 30.488281 83.164063 29.222656 C 82.273438 27.75 80.835938 27.292969 79.234375 27.128906 C 78.058594 27.011719 76.640625 27.035156 75.484375 27.289063 L 75.449219 27.296875 L 75.414063 27.308594 C 72.53125 28.121094 69.6875 28.015625 67.210938 26.191406 L 66.964844 26.007813 L 64.800781 23.558594 C 63.785156 22.382813 62.597656 21.460938 61.371094 20.597656 C 59.640625 19.507813 57.566406 19.378906 55.214844 20.050781 C 52.824219 21.011719 50.433594 21.972656 48.042969 22.933594 C 46.066406 23.738281 43.988281 24.390625 41.804688 24.882813 C 39.878906 25.28125 38.195313 24.953125 36.582031 24.417969 C 35.984375 23.949219 36.113281 23.480469 36.347656 23.011719 C 36.789063 22.988281 37.230469 22.960938 37.675781 22.933594 L 37.699219 22.84375 "/>
<path style=" stroke:none;fill-rule:evenodd;fill:rgb(92.89856%,10.998535%,14.099121%);fill-opacity:1;" d="M 56.433594 15.4375 C 55.785156 15.429688 55.070313 15.785156 54.304688 16.429688 C 52.941406 14.984375 50.464844 14.832031 48.199219 15.0625 C 48.121094 14.90625 48.546875 14.671875 48.46875 14.515625 C 49.761719 13.324219 50.503906 13.511719 51.355469 13.425781 C 54.4375 13.148438 56.308594 13.796875 57.921875 14.644531 L 57.753906 14.703125 C 57.289063 14.867188 56.78125 15.089844 56.433594 15.4375 "/>
<path style=" stroke:none;fill-rule:evenodd;fill:rgb(92.89856%,10.998535%,14.099121%);fill-opacity:1;" d="M 37.273438 21.917969 C 40.921875 21.558594 43.132813 19.5 45.039063 17.089844 C 49.359375 8.683594 58.472656 7.140625 67.101563 7.5 L 70.496094 7.902344 C 70.960938 7.757813 71.449219 7.636719 71.949219 7.535156 C 65.050781 6.3125 58.242188 6.351563 51.125 8.515625 L 51.101563 8.523438 L 51.074219 8.53125 C 43.976563 10.355469 45.625 15.910156 41.433594 17.726563 L 41.285156 17.792969 L 41.121094 17.816406 C 40.214844 17.945313 39.355469 17.9375 38.609375 17.578125 C 36.097656 17.96875 32.269531 21.460938 36.035156 21.765625 L 37.273438 21.917969 "/>
<path style=" stroke:none;fill-rule:evenodd;fill:rgb(92.89856%,10.998535%,14.099121%);fill-opacity:1;" d="M 67.769531 9.3125 C 66.910156 8.511719 64.722656 8.261719 61.878906 8.28125 C 60.449219 8.292969 58.234375 8.699219 56.851563 9.019531 C 55.902344 9.433594 56.71875 9.5625 57.667969 9.410156 C 58.921875 9.078125 65.519531 10.984375 66.558594 11.878906 C 66.574219 11.398438 66.675781 10.921875 66.894531 10.460938 C 67.097656 10.027344 67.398438 9.644531 67.769531 9.3125 "/>
<path style=" stroke:none;fill-rule:evenodd;fill:rgb(92.89856%,10.998535%,14.099121%);fill-opacity:1;" d="M 63.523438 11.957031 C 62.441406 10.878906 58.546875 9.933594 54.394531 10.695313 C 53.605469 10.882813 52.824219 10.988281 51.976563 11.554688 C 51.058594 11.855469 51.007813 12.167969 51.460938 12.257813 C 54.855469 12.167969 58.277344 12.601563 60.222656 14.007813 C 61.097656 12.855469 62.238281 12.226563 63.523438 11.957031 "/>
<path style=" stroke:none;fill-rule:evenodd;fill:rgb(92.89856%,10.998535%,14.099121%);fill-opacity:1;" d="M 59.894531 14.480469 L 59.707031 14.574219 L 59.84375 14.566406 Z M 59.894531 14.480469 "/>
<path style=" stroke:none;fill-rule:evenodd;fill:rgb(92.89856%,10.998535%,14.099121%);fill-opacity:1;" d="M 57.207031 23.269531 C 58.523438 23.230469 59.523438 22.644531 60.289063 21.644531 C 58.585938 20.972656 56.648438 20.992188 54.511719 21.609375 C 48.753906 23.875 42.453125 27.527344 36.082031 25.679688 C 35.730469 25.796875 35.382813 25.910156 35.03125 26.027344 C 33.792969 27.519531 32.09375 28.238281 30.296875 28.796875 C 31.472656 29.570313 32.007813 29.8125 33.539063 29.289063 C 34.171875 29.078125 34.800781 29.039063 35.371094 29.222656 C 36.453125 28.578125 37.429688 27.820313 38.179688 26.804688 C 38.539063 26.304688 38.640625 26.394531 38.488281 27.078125 C 37.875 28.164063 37.101563 28.988281 36.230469 29.652344 C 37.230469 29.878906 38.171875 29.785156 39.089844 29.21875 L 39.5625 28.929688 L 39.597656 28.941406 C 40.355469 28.441406 41.027344 27.859375 41.515625 27.089844 C 41.765625 26.683594 41.855469 26.757813 41.785156 27.308594 C 41.429688 28.078125 40.957031 28.679688 40.410156 29.179688 C 41.261719 29.382813 42.058594 29.308594 42.757813 28.691406 L 42.910156 28.554688 L 42.878906 28.550781 L 42.992188 28.484375 L 43.148438 28.347656 L 43.214844 28.351563 C 44.140625 27.792969 44.976563 27.144531 45.554688 26.234375 C 45.804688 25.832031 45.894531 25.90625 45.828125 26.453125 C 45.445313 27.273438 44.933594 27.90625 44.339844 28.421875 C 45.425781 28.4375 46.355469 28.214844 47.027344 27.167969 L 47.46875 26.484375 L 47.824219 26.546875 C 48.328125 26.121094 48.757813 25.652344 49.042969 25.085938 C 49.203125 24.761719 49.285156 24.800781 49.289063 25.210938 C 49.097656 25.765625 48.8125 26.230469 48.464844 26.636719 C 48.925781 26.605469 49.335938 26.210938 49.648438 25.910156 L 49.949219 25.628906 L 50.363281 25.585938 L 50.367188 25.585938 C 50.457031 24.863281 50.671875 24.195313 51.382813 23.738281 C 51.0625 24.304688 50.878906 24.894531 50.949219 25.523438 C 51.816406 25.433594 52.542969 25.28125 53.164063 24.46875 L 53.304688 24.285156 L 53.503906 24.164063 C 53.710938 24.039063 53.941406 23.902344 54.1875 23.773438 C 54.332031 23.136719 54.648438 22.554688 55.5 22.144531 C 55.183594 22.566406 54.964844 22.996094 54.910156 23.449219 C 55.460938 23.25 56.035156 23.160156 56.550781 23.347656 C 56.726563 22.816406 57.058594 22.339844 57.789063 21.988281 C 57.480469 22.402344 57.265625 22.828125 57.207031 23.269531 "/>
<path style=" stroke:none;fill-rule:evenodd;fill:rgb(92.89856%,10.998535%,14.099121%);fill-opacity:1;" d="M 60.984375 21.96875 C 60.296875 23.199219 59.179688 24.199219 57.625 24.964844 L 57.5 25.246094 C 57.386719 25.492188 57.019531 26.105469 56.832031 26.503906 C 57.121094 26.566406 57.507813 26.597656 57.671875 26.609375 L 57.785156 26.617188 L 57.894531 26.644531 C 59.992188 27.164063 61.757813 27.289063 59.765625 27.882813 C 58.90625 28.347656 56.472656 30.53125 55.835938 31.316406 L 55.761719 31.410156 L 55.667969 31.484375 C 54.53125 32.03125 53.191406 31.945313 51.84375 31.699219 L 51.734375 31.628906 C 50.808594 30.957031 48.457031 31.972656 47.390625 32.566406 L 49.820313 32.667969 L 48.695313 33.707031 C 48.964844 34.636719 49.558594 34.128906 50.058594 33.988281 C 50.859375 33.703125 51.617188 32.949219 52.417969 32.664063 L 52.515625 32.628906 L 52.617188 32.613281 C 54.257813 32.558594 56.035156 32.199219 57.625 32.714844 C 58.757813 33.886719 60.40625 33.46875 59.882813 32.832031 C 58.449219 32.839844 56.578125 31.367188 58.242188 29.984375 C 59.023438 29.480469 59.808594 29.238281 60.699219 29.035156 C 60.925781 28.980469 61.609375 28.847656 61.78125 28.699219 C 61.882813 28.617188 61.894531 28.21875 61.894531 28.109375 L 61.894531 27.007813 L 62.992188 26.894531 C 63.839844 26.804688 64.71875 26.660156 65.503906 26.304688 C 64.453125 25 63.296875 23.695313 61.683594 22.390625 C 61.457031 22.234375 61.222656 22.09375 60.984375 21.96875 "/>
<path style=" stroke:none;fill-rule:evenodd;fill:rgb(92.89856%,10.998535%,14.099121%);fill-opacity:1;" d="M 26.351563 19.46875 C 27.558594 20.59375 28.925781 21.464844 30.761719 21.601563 L 29.058594 23.304688 C 27.664063 23.609375 26.367188 21.835938 25.714844 20.746094 L 25.957031 19.6875 C 25.992188 19.53125 26.027344 19.523438 26.191406 19.496094 L 26.351563 19.46875 "/>
<path style=" stroke:none;fill-rule:evenodd;fill:rgb(92.89856%,10.998535%,14.099121%);fill-opacity:1;" d="M 29.996094 23.660156 L 31.613281 22.804688 C 32.390625 22.460938 34.199219 22.679688 34.449219 23.621094 C 34.632813 24.300781 33.554688 25.015625 33.519531 25.5625 C 33.488281 26 30.449219 27.558594 29.15625 28.019531 C 28.601563 27.867188 28.003906 28.011719 27.375 28.457031 C 27.332031 28.488281 27.28125 28.523438 27.234375 28.550781 L 27.207031 28.566406 C 26.558594 28.96875 25.90625 29.371094 25.257813 29.773438 C 23.746094 30.664063 23.792969 32.203125 25.355469 32.957031 L 25.433594 32.988281 C 25.507813 33.019531 25.578125 33.046875 25.652344 33.078125 C 25.242188 33.125 24.828125 33.09375 24.394531 32.984375 C 22.539063 31.605469 21.007813 32.414063 19.066406 33.023438 L 18.90625 33.074219 L 18.765625 33.164063 C 17.777344 33.808594 16.601563 33.863281 15.464844 33.726563 C 15.421875 33.71875 15.378906 33.714844 15.339844 33.710938 C 15.296875 33.714844 15.253906 33.71875 15.214844 33.71875 C 15.085938 33.730469 14.96875 33.753906 14.859375 33.789063 C 14.859375 33.761719 14.859375 33.738281 14.855469 33.710938 C 14.820313 32.707031 15.964844 32.523438 17.28125 32.457031 C 16.203125 32.160156 15.027344 32.054688 13.636719 32.382813 C 13.761719 32.042969 13.835938 31.664063 14.132813 31.4375 C 15.132813 31.035156 16.445313 30.683594 17.367188 31.410156 C 17.390625 31.429688 17.414063 31.449219 17.441406 31.46875 C 17.464844 31.484375 17.492188 31.5 17.519531 31.515625 C 19.125 32.425781 20.621094 31.757813 22 30.800781 L 22.03125 30.78125 L 22.058594 30.757813 C 24.039063 29.203125 25.949219 27.632813 27.746094 25.875 L 27.683594 25.867188 L 29.609375 24.085938 C 29.609375 24.085938 29.796875 23.894531 29.996094 23.660156 "/>
<path style=" stroke:none;fill-rule:evenodd;fill:rgb(92.89856%,10.998535%,14.099121%);fill-opacity:1;" d="M 32.824219 15.152344 C 33.046875 15.15625 33.289063 15.140625 33.539063 15.101563 C 33.34375 15.84375 32.179688 16.738281 31.789063 17.441406 C 31.632813 17.671875 31.59375 17.945313 31.4375 18.179688 C 30.71875 18.007813 30.183594 17.472656 29.710938 16.800781 L 29.867188 16.753906 C 31.34375 16.078125 32.3125 15.546875 32.824219 15.152344 "/>
<path style=" stroke:none;fill-rule:evenodd;fill:rgb(92.89856%,10.998535%,14.099121%);fill-opacity:1;" d="M 28.410156 17.339844 C 29.085938 18.121094 29.886719 18.714844 30.96875 18.882813 C 30.867188 19.503906 30.761719 20.128906 30.65625 20.753906 C 29.222656 20.65625 28.085938 19.894531 26.996094 19.019531 L 27.097656 18.785156 C 27.398438 18.117188 27.855469 17.664063 28.410156 17.339844 "/>
<path style=" stroke:none;fill-rule:evenodd;fill:rgb(92.89856%,10.998535%,14.099121%);fill-opacity:1;" d="M 23.816406 23.539063 C 24.152344 23.054688 24.828125 22.15625 24.828125 22.15625 C 24.828125 22.15625 24.867188 21.261719 24.816406 20.683594 L 24.484375 20.601563 C 22.378906 20.105469 20.316406 19.402344 18.3125 18.582031 L 18.226563 18.542969 L 18.148438 18.496094 C 17.722656 18.238281 16.898438 18.792969 16.574219 19.015625 L 16.554688 19.03125 L 16.53125 19.042969 C 14.359375 20.417969 11.902344 21.519531 9.328125 20.730469 C 8.671875 20.769531 8.367188 21.230469 8.109375 21.800781 L 10.023438 21.175781 L 9.839844 22.285156 C 10.207031 22.117188 10.652344 22.050781 11.1875 22.128906 L 11.738281 22.207031 L 11.792969 21.992188 L 12.949219 22.234375 C 13.558594 22.363281 13.863281 22.113281 14.28125 21.710938 L 15.035156 20.984375 L 15.871094 21.617188 C 16.234375 21.894531 16.613281 22.097656 17.011719 22.230469 L 16.859375 22.140625 L 16.722656 21.980469 C 16.265625 21.441406 15.96875 20.753906 16.277344 20.054688 C 16.722656 19.058594 17.890625 19.03125 18.8125 19.128906 L 19.027344 19.152344 L 19.21875 19.246094 C 20.253906 19.746094 21.105469 20.472656 21.804688 21.375 L 21.945313 21.554688 L 22.011719 21.777344 C 22.296875 22.742188 22.925781 23.253906 23.816406 23.539063 "/>
<path style=" stroke:none;fill-rule:evenodd;fill:rgb(92.89856%,10.998535%,14.099121%);fill-opacity:1;" d="M 26.089844 25.671875 L 27.933594 24.355469 C 27.933594 24.355469 28.453125 24.105469 27.796875 23.621094 C 27.140625 23.140625 25.964844 23.46875 25.964844 22.792969 C 25.964844 22.296875 25.265625 23.265625 24.898438 23.808594 L 25.007813 23.835938 L 25.132813 24.652344 C 25.203125 25.117188 25.421875 25.410156 25.828125 25.640625 L 26.089844 25.671875 "/>
<path style=" stroke:none;fill-rule:evenodd;fill:rgb(92.89856%,10.998535%,14.099121%);fill-opacity:1;" d="M 26.828125 14.375 C 26.808594 14.40625 26.792969 14.441406 26.777344 14.46875 C 26.863281 14.464844 26.945313 14.460938 27.03125 14.453125 C 26.960938 14.429688 26.894531 14.40625 26.828125 14.375 "/>
<path style=" stroke:none;fill-rule:evenodd;fill:rgb(92.89856%,10.998535%,14.099121%);fill-opacity:1;" d="M 18.152344 11.582031 L 18.25 11.421875 C 17.707031 11.378906 17.167969 11.296875 16.640625 11.175781 C 16.671875 11.214844 16.699219 11.25 16.726563 11.285156 L 18.152344 11.582031 "/>
<path style=" stroke:none;fill-rule:evenodd;fill:rgb(92.89856%,10.998535%,14.099121%);fill-opacity:1;" d="M 37.011719 20.65625 C 38.136719 19.691406 39.449219 19.332031 40.828125 19.191406 C 41.445313 18.984375 42.746094 19.054688 40.867188 18.574219 C 37.511719 17.714844 34.421875 21.496094 37.011719 20.65625 "/>
<path style=" stroke:none;fill-rule:evenodd;fill:rgb(92.89856%,10.998535%,14.099121%);fill-opacity:1;" d="M 64.863281 20.308594 C 63.019531 20.191406 62.886719 20.382813 64.460938 20.886719 C 66.800781 21.765625 68.644531 22.996094 70.261719 24.394531 C 72.066406 25.546875 74.351563 25.367188 76.625 25.484375 C 77.621094 25.417969 77.582031 25.199219 76.507813 24.824219 C 72.753906 24.351563 70.921875 23.242188 67.925781 21.40625 C 67.023438 20.921875 66.078125 20.476563 64.863281 20.308594 "/>
<path style=" stroke:none;fill-rule:evenodd;fill:rgb(92.89856%,10.998535%,14.099121%);fill-opacity:1;" d="M 70.292969 20.667969 C 72.21875 21.195313 73.886719 21.96875 75.1875 23.117188 C 76.210938 23.542969 76.351563 23.347656 75.613281 22.53125 C 73.753906 20.828125 73.09375 20.515625 70.566406 20.085938 C 69.59375 20.074219 69.503906 20.269531 70.292969 20.667969 "/>
</g>
</svg>
